# Made in Blockbench 4.1.3

o cube
v -0.26625 0.08875000000000002 -0.3550000000000006
v -0.2662500000000008 0.08874999999999998 0
v -0.26625 0.04437500000000003 -0.3550000000000006
v -0.2662500000000008 0.04437499999999999 0
v 0.31062499999999915 0.08874999999999991 0
v 0.310625 0.08874999999999995 -0.35499999999999926
v 0.31062499999999915 0.04437499999999992 0
v 0.310625 0.04437499999999996 -0.35499999999999926
vt 0.3125 0.25
vt 0.71875 0.25
vt 0.71875 0.21875
vt 0.3125 0.21875
vt 0.3125 0.15625
vt 0.5625 0.15625
vt 0.5625 0.15625
vt 0.3125 0.15625
vt 0.3125 0.03125
vt 0.71875 0.03125
vt 0.71875 0
vt 0.3125 0
vt 0.375 0.3125
vt 0.5625 0.3125
vt 0.5625 0.28125
vt 0.375 0.28125
vt 0.28125 0.75
vt 0.6875 0.75
vt 0.6875 0.5
vt 0.28125 0.5
vt 0.3125 0.25
vt 0.71875 0.25
vt 0.71875 0
vt 0.3125 0
vn 0 0 1
vn -1 0 0
vn 0 0 -1
vn 1 0 0
vn 0 1 0
vn 0 -1 0
g _
f 4/4/1 7/3/1 5/2/1 2/1/1
f 3/8/2 4/7/2 2/6/2 1/5/2
f 8/12/3 3/11/3 1/10/3 6/9/3
f 7/16/4 8/15/4 6/14/4 5/13/4
f 6/20/5 1/19/5 2/18/5 5/17/5
f 7/24/6 4/23/6 3/22/6 8/21/6
o cube
v 0.3106249999999999 0.08874999999999995 -0.31062499999999926
v 0.31062499999999926 0.08874999999999991 -0.04437499999999933
v 0.3106249999999999 0.044374999999999956 -0.31062499999999926
v 0.31062499999999926 0.04437499999999993 -0.04437499999999933
v 0.35499999999999926 0.08874999999999991 -0.04437499999999922
v 0.35499999999999987 0.08874999999999995 -0.31062499999999915
v 0.35499999999999926 0.04437499999999992 -0.04437499999999922
v 0.35499999999999987 0.04437499999999995 -0.31062499999999915
vt 0.34375 0.28125
vt 0.375 0.28125
vt 0.375 0.25
vt 0.34375 0.25
vt 0 1
vt 0.125 1
vt 0.125 0.96875
vt 0 0.96875
vt 0.34375 0.28125
vt 0.375 0.28125
vt 0.375 0.25
vt 0.34375 0.25
vt 0.34375 0.3125
vt 0.53125 0.3125
vt 0.53125 0.28125
vt 0.34375 0.28125
vt 0.25 0.71875
vt 0.28125 0.71875
vt 0.28125 0.53125
vt 0.25 0.53125
vt 0.71875 0.21875
vt 0.75 0.21875
vt 0.75 0.03125
vt 0.71875 0.03125
vn 0 0 1
vn -1 0 0
vn 0 0 -1
vn 1 0 0
vn 0 1 0
vn 0 -1 0
g _
f 12/28/7 15/27/7 13/26/7 10/25/7
f 11/32/8 12/31/8 10/30/8 9/29/8
f 16/36/9 11/35/9 9/34/9 14/33/9
f 15/40/10 16/39/10 14/38/10 13/37/10
f 14/44/11 9/43/11 10/42/11 13/41/11
f 15/48/12 12/47/12 11/46/12 16/45/12
o cube
v -0.3106249999999999 0.08875000000000004 -0.3993750000000007
v -0.3106250000000007 0.08875 -0.044375000000000775
v -0.3106249999999999 0.04437500000000004 -0.3993750000000007
v -0.3106250000000007 0.044375 -0.044375000000000775
v -0.2662500000000007 0.08874999999999998 -0.044375000000000664
v -0.2662499999999999 0.08875000000000002 -0.3993750000000006
v -0.2662500000000007 0.044375 -0.044375000000000664
v -0.2662499999999999 0.04437500000000004 -0.3993750000000006
vt 0.34375 0.28125
vt 0.375 0.28125
vt 0.375 0.25
vt 0.34375 0.25
vt 0.3125 0.21875
vt 0.34375 0.21875
vt 0.34375 0.1875
vt 0.3125 0.1875
vt 0.34375 0.28125
vt 0.375 0.28125
vt 0.375 0.25
vt 0.34375 0.25
vt 0.34375 0.3125
vt 0.53125 0.3125
vt 0.53125 0.28125
vt 0.34375 0.28125
vt 0.6875 0.78125
vt 0.71875 0.78125
vt 0.71875 0.53125
vt 0.6875 0.53125
vt 0.28125 0.28125
vt 0.3125 0.28125
vt 0.3125 0.03125
vt 0.28125 0.03125
vn 0 0 1
vn -1 0 0
vn 0 0 -1
vn 1 0 0
vn 0 1 0
vn 0 -1 0
g _
f 20/52/13 23/51/13 21/50/13 18/49/13
f 19/56/14 20/55/14 18/54/14 17/53/14
f 24/60/15 19/59/15 17/58/15 22/57/15
f 23/64/16 24/63/16 22/62/16 21/61/16
f 22/68/17 17/67/17 18/66/17 21/65/17
f 23/72/18 20/71/18 19/70/18 24/69/18
o cube
v -0.355 0.08875000000000004 -0.3550000000000008
v -0.3550000000000006 0.08875000000000001 -0.08875000000000083
v -0.355 0.04437500000000004 -0.3550000000000008
v -0.3550000000000006 0.044375000000000005 -0.08875000000000083
v -0.3106250000000006 0.08875000000000001 -0.08875000000000072
v -0.310625 0.08875000000000004 -0.3550000000000007
v -0.3106250000000006 0.044375 -0.08875000000000072
v -0.310625 0.04437500000000003 -0.3550000000000007
vt 0.34375 0.28125
vt 0.375 0.28125
vt 0.375 0.25
vt 0.34375 0.25
vt 0.3125 0.21875
vt 0.4609375 0.21875
vt 0.4609375 0.1953125
vt 0.3125 0.1953125
vt 0.34375 0.28125
vt 0.375 0.28125
vt 0.375 0.25
vt 0.34375 0.25
vt 0.34375 0.3125
vt 0.53125 0.3125
vt 0.53125 0.28125
vt 0.34375 0.28125
vt 0.71875 0.75
vt 0.75 0.75
vt 0.75 0.5625
vt 0.71875 0.5625
vt 0.25 0.25
vt 0.28125 0.25
vt 0.28125 0.0625
vt 0.25 0.0625
vn 0 0 1
vn -1 0 0
vn 0 0 -1
vn 1 0 0
vn 0 1 0
vn 0 -1 0
g _
f 28/76/19 31/75/19 29/74/19 26/73/19
f 27/80/20 28/79/20 26/78/20 25/77/20
f 32/84/21 27/83/21 25/82/21 30/81/21
f 31/88/22 32/87/22 30/86/22 29/85/22
f 30/92/23 25/91/23 26/90/23 29/89/23
f 31/96/24 28/95/24 27/94/24 32/93/24
o cube
v -0.2662499999999999 0.08875000000000002 -0.3993750000000006
v -0.26625 0.08875000000000002 -0.3550000000000006
v -0.2662499999999999 0.04437500000000004 -0.3993750000000006
v -0.26625 0.04437500000000003 -0.3550000000000006
v 0.26625 0.08874999999999997 -0.3549999999999993
v 0.2662500000000001 0.08874999999999997 -0.3993749999999993
v 0.26625 0.04437499999999996 -0.35499999999999937
v 0.2662500000000001 0.04437499999999997 -0.39937499999999937
vt 0.3125 0.25
vt 0.71875 0.25
vt 0.71875 0.21875
vt 0.3125 0.21875
vt 0.3125 0.15625
vt 0.5625 0.15625
vt 0.5625 0.15625
vt 0.3125 0.15625
vt 0.28125 0.28125
vt 0.65625 0.28125
vt 0.65625 0.25
vt 0.28125 0.25
vt 0.375 0.3125
vt 0.40625 0.3125
vt 0.40625 0.28125
vt 0.375 0.28125
vt 0.3125 0.78125
vt 0.6875 0.78125
vt 0.6875 0.75
vt 0.3125 0.75
vt 0.28125 0.28125
vt 0.65625 0.28125
vt 0.65625 0.25
vt 0.28125 0.25
vn 0 0 1
vn -1 0 0
vn 0 0 -1
vn 1 0 0
vn 0 1 0
vn 0 -1 0
g _
f 36/100/25 39/99/25 37/98/25 34/97/25
f 35/104/26 36/103/26 34/102/26 33/101/26
f 40/108/27 35/107/27 33/106/27 38/105/27
f 39/112/28 40/111/28 38/110/28 37/109/28
f 38/116/29 33/115/29 34/114/29 37/113/29
f 39/120/30 36/119/30 35/118/30 40/117/30
o cube
v -0.26624999999999976 0.08875000000000004 -0.4437500000000006
v -0.2662499999999999 0.08875000000000002 -0.3993750000000006
v -0.26624999999999976 0.044375000000000046 -0.4437500000000006
v -0.2662499999999999 0.04437500000000004 -0.3993750000000006
v 0.2218750000000001 0.08874999999999997 -0.3993749999999994
v 0.2218750000000002 0.08874999999999998 -0.4437499999999994
v 0.2218750000000001 0.04437499999999998 -0.3993749999999994
v 0.2218750000000002 0.044374999999999984 -0.4437499999999994
vt 0.3125 0.25
vt 0.71875 0.25
vt 0.71875 0.21875
vt 0.3125 0.21875
vt 0.3125 0.15625
vt 0.5625 0.15625
vt 0.5625 0.15625
vt 0.3125 0.15625
vt 0.3125 0.3125
vt 0.65625 0.3125
vt 0.65625 0.28125
vt 0.3125 0.28125
vt 0.375 0.3125
vt 0.40625 0.3125
vt 0.40625 0.28125
vt 0.375 0.28125
vt 0.34375 0.8125
vt 0.6875 0.8125
vt 0.6875 0.78125
vt 0.34375 0.78125
vt 0.3125 0.3125
vt 0.65625 0.3125
vt 0.65625 0.28125
vt 0.3125 0.28125
vn 0 0 1
vn -1 0 0
vn 0 0 -1
vn 1 0 0
vn 0 1 0
vn 0 -1 0
g _
f 44/124/31 47/123/31 45/122/31 42/121/31
f 43/128/32 44/127/32 42/126/32 41/125/32
f 48/132/33 43/131/33 41/130/33 46/129/33
f 47/136/34 48/135/34 46/134/34 45/133/34
f 46/140/35 41/139/35 42/138/35 45/137/35
f 47/144/36 44/143/36 43/142/36 48/141/36
o cube
v -0.17749999999999969 0.08875000000000004 -0.48812500000000036
v -0.17749999999999977 0.08875000000000004 -0.4437500000000004
v -0.17749999999999969 0.04437500000000003 -0.48812500000000036
v -0.17749999999999977 0.04437500000000003 -0.4437500000000004
v 0.13312500000000022 0.08875 -0.44374999999999964
v 0.1331250000000003 0.08875 -0.48812499999999964
v 0.13312500000000022 0.044375 -0.44374999999999964
v 0.1331250000000003 0.044375 -0.48812499999999964
vt 0.3125 0.25
vt 0.71875 0.25
vt 0.71875 0.21875
vt 0.3125 0.21875
vt 0.3125 0.15625
vt 0.5625 0.15625
vt 0.5625 0.15625
vt 0.3125 0.15625
vt 0.375 0.34375
vt 0.59375 0.34375
vt 0.59375 0.3125
vt 0.375 0.3125
vt 0.375 0.3125
vt 0.40625 0.3125
vt 0.40625 0.28125
vt 0.375 0.28125
vt 0.40625 0.84375
vt 0.625 0.84375
vt 0.625 0.8125
vt 0.40625 0.8125
vt 0.375 0.34375
vt 0.59375 0.34375
vt 0.59375 0.3125
vt 0.375 0.3125
vn 0 0 1
vn -1 0 0
vn 0 0 -1
vn 1 0 0
vn 0 1 0
vn 0 -1 0
g _
f 52/148/37 55/147/37 53/146/37 50/145/37
f 51/152/38 52/151/38 50/150/38 49/149/38
f 56/156/39 51/155/39 49/154/39 54/153/39
f 55/160/40 56/159/40 54/158/40 53/157/40
f 54/164/41 49/163/41 50/162/41 53/161/41
f 55/168/42 52/167/42 51/166/42 56/165/42
o cube
v -0.19968750000000032 0.08664627063189387 -0.33579098426299586
v -0.19968750000000474 0.00981020768386709 0.010794098264580387
v -0.19968750000000016 0.04332313531594684 -0.3453954921314992
v -0.19968750000000457 -0.03351292763207994 0.0011895903960770227
v 0.19968749999999524 0.009810207683867506 0.01079409826458555
v 0.19968749999999966 0.08664627063189428 -0.3357909842629907
v 0.1996874999999954 -0.03351292763207954 0.0011895903960821852
v 0.19968749999999982 0.04332313531594724 -0.34539549213149406
vt 0.3125 0.25
vt 0.59375 0.25
vt 0.59375 0.21875
vt 0.3125 0.21875
vt 0.3125 0.15625
vt 0.5625 0.15625
vt 0.5625 0.15625
vt 0.3125 0.15625
vt 0.3125 0.03125
vt 0.71875 0.03125
vt 0.71875 0
vt 0.3125 0
vt 0.375 0.3125
vt 0.5625 0.3125
vt 0.5625 0.28125
vt 0.375 0.28125
vt 0.28125 0.75
vt 0.6875 0.75
vt 0.6875 0.5
vt 0.28125 0.5
vt 0.375 0.25
vt 0.65625 0.25
vt 0.65625 0
vt 0.375 0
vn 0 -0.2164396139381036 0.9762960071199333
vn -1 0 0
vn 0 0.2164396139381036 -0.9762960071199333
vn 1 0 0
vn 0 0.9762960071199334 0.21643961393810365
vn 0 -0.9762960071199334 -0.21643961393810365
g _
f 60/172/43 63/171/43 61/170/43 58/169/43
f 59/176/44 60/175/44 58/174/44 57/173/44
f 64/180/45 59/179/45 57/178/45 62/177/45
f 63/184/46 64/183/46 62/182/46 61/181/46
f 62/188/47 57/187/47 58/186/47 61/185/47
f 63/192/48 60/191/48 59/190/48 64/189/48
o cube
v -0.2440625000000038 0.0723423587368208 -0.06624766449881092
v -0.2440625000000049 0.05313334299981409 0.02039860613308314
v -0.24406250000000362 0.02901922342087375 -0.07585217236731423
v -0.24406250000000473 0.009810207683867048 0.010794098264579777
v 0.24406249999999508 0.05313334299981459 0.02039860613308947
v 0.24406249999999619 0.0723423587368213 -0.06624766449880459
v 0.24406249999999524 0.009810207683867547 0.010794098264586105
v 0.24406249999999635 0.02901922342087425 -0.07585217236730796
vt 0.3125 0.25
vt 0.65625 0.25
vt 0.65625 0.21875
vt 0.3125 0.21875
vt 0.3125 0.15625
vt 0.375 0.15625
vt 0.375 0.125
vt 0.3125 0.125
vt 0.3125 0.03125
vt 0.71875 0.03125
vt 0.71875 0
vt 0.3125 0
vt 0.375 0.3125
vt 0.4375 0.3125
vt 0.4375 0.28125
vt 0.375 0.28125
vt 0.28125 0.75
vt 0.6875 0.75
vt 0.6875 0.5
vt 0.28125 0.5
vt 0.375 0.0625
vt 0.65625 0.0625
vt 0.65625 0
vt 0.375 0
vn 0 -0.2164396139381036 0.9762960071199333
vn -1 0 0
vn 0 0.2164396139381036 -0.9762960071199333
vn 1 0 0
vn 0 0.9762960071199334 0.21643961393810365
vn 0 -0.9762960071199334 -0.21643961393810365
g _
f 68/196/49 71/195/49 69/194/49 66/193/49
f 67/200/50 68/199/50 66/198/50 65/197/50
f 72/204/51 67/203/51 65/202/51 70/201/51
f 71/208/52 72/207/52 70/206/52 69/205/52
f 70/212/53 65/211/53 66/210/53 69/209/53
f 71/216/54 68/215/54 67/214/54 72/213/54
o cube
v -0.2440625000000026 0.06988980681585395 -0.15769618906495664
v -0.2440625000000037 0.050680791078847265 -0.07104991843306258
v -0.2440625000000025 0.04822823915788044 -0.16249844299920832
v -0.24406250000000362 0.02901922342087375 -0.07585217236731423
v 0.24406249999999627 0.050680791078847764 -0.07104991843305625
v 0.24406249999999738 0.06988980681585445 -0.15769618906495034
v 0.24406249999999635 0.02901922342087425 -0.07585217236730796
v 0.24406249999999746 0.04822823915788094 -0.16249844299920202
vt 0.3125 0.25
vt 0.65625 0.25
vt 0.65625 0.21875
vt 0.3125 0.21875
vt 0.3125 0.15625
vt 0.375 0.15625
vt 0.375 0.125
vt 0.3125 0.125
vt 0.3125 0.03125
vt 0.71875 0.03125
vt 0.71875 0
vt 0.3125 0
vt 0.375 0.3125
vt 0.4375 0.3125
vt 0.4375 0.28125
vt 0.375 0.28125
vt 0.28125 0.75
vt 0.6875 0.75
vt 0.6875 0.5
vt 0.28125 0.5
vt 0.375 0.0625
vt 0.65625 0.0625
vt 0.65625 0
vt 0.375 0
vn 0 -0.2164396139381036 0.9762960071199333
vn -1 0 0
vn 0 0.2164396139381036 -0.9762960071199333
vn 1 0 0
vn 0 0.9762960071199334 0.21643961393810365
vn 0 -0.9762960071199334 -0.21643961393810365
g _
f 76/220/55 79/219/55 77/218/55 74/217/55
f 75/224/56 76/223/56 74/222/56 73/221/56
f 80/228/57 75/227/57 73/226/57 78/225/57
f 79/232/58 80/231/58 78/230/58 77/229/58
f 78/236/59 73/235/59 74/234/59 77/233/59
f 79/240/60 76/239/60 75/238/60 80/237/60
