# Made in Blockbench 4.1.3

o cube
v 0.10371998550610995 -0.27359270366089056 -0.26929000921137375
v 0.09282551766265265 -0.5226413781838269 -0.28815978103766715
v 0.10371998550610995 -0.27359270366089056 -0.26929000921137375
v 0.09282551766265265 -0.5226413781838269 -0.28815978103766715
v -0.2319340087565119 -0.5226413781838269 -0.10065978103766725
v -0.2210395409130546 -0.27359270366089056 -0.08179000921137386
v -0.2319340087565119 -0.5226413781838269 -0.10065978103766725
v -0.2210395409130546 -0.27359270366089056 -0.08179000921137386
vt 0 1
vt 1 1
vt 1 0.5
vt 0 0.5
vt 0 1
vt 0.125 1
vt 0.125 0.8125
vt 0 0.8125
vt 0 1
vt 0.1875 1
vt 0.1875 0.8125
vt 0 0.8125
vt 0 1
vt 1 1
vt 1 0.5
vt 0 0.5
vt 0 1
vt 1 1
vt 1 0.5
vt 0 0.5
vt 0 1
vt 0.1875 1
vt 0.1875 0.75
vt 0 0.75
vn -0.043577871373829215 -0.9961946980917457 -0.07547908730517362
vn 0.8660254037844388 0 -0.49999999999999994
vn 0.043577871373829215 0.9961946980917457 0.07547908730517362
vn -0.8660254037844388 0 0.49999999999999994
vn -0.4980973490458724 0.0871557427476584 -0.862729915662821
vn 0.4980973490458724 -0.0871557427476584 0.862729915662821
g Frond
f 4/4/1 7/3/1 5/2/1 2/1/1
f 3/8/2 4/7/2 2/6/2 1/5/2
f 8/12/3 3/11/3 1/10/3 6/9/3
f 7/16/4 8/15/4 6/14/4 5/13/4
f 6/20/5 1/19/5 2/18/5 5/17/5
f 7/24/6 4/23/6 3/22/6 8/21/6
o cube
v 0.17800476320958228 0 -0.14062499999999994
v 0.12763292492706754 -0.15813589608991602 -0.22787158317595851
v 0.17800476320958228 0 -0.14062499999999994
v 0.12763292492706754 -0.15813589608991602 -0.22787158317595851
v -0.19712660149209701 -0.15813589608991602 -0.040371583175958625
v -0.14675476320958228 0 0.046874999999999944
v -0.19712660149209701 -0.15813589608991602 -0.040371583175958625
v -0.14675476320958228 0 0.046874999999999944
vt 0 0.5
vt 1 0.5
vt 1 0
vt 0 0
vt 0 0.875
vt 0.0625 0.875
vt 0.0625 0.875
vt 0 0.875
vt 0 1
vt 0.1875 1
vt 0.1875 0.875
vt 0 0.875
vt 0 0.5
vt 1 0.5
vt 1 0
vt 0 0
vt 0 0.5
vt 1 0.5
vt 1 0
vt 0 0
vt 0 1
vt 0.125 1
vt 0.125 0.875
vt 0 0.875
vn -0.26864980417341183 -0.8433914458128855 -0.4653151102717791
vn 0.8660254037844387 0 -0.4999999999999999
vn 0.26864980417341183 0.8433914458128855 0.4653151102717791
vn -0.8660254037844387 0 0.4999999999999999
vn -0.4216957229064425 0.5372996083468241 -0.7303984174084458
vn 0.4216957229064425 -0.5372996083468241 0.7303984174084458
g Frond
f 12/28/7 15/27/7 13/26/7 10/25/7
f 11/32/8 12/31/8 10/30/8 9/29/8
f 16/36/9 11/35/9 9/34/9 14/33/9
f 15/40/10 16/39/10 14/38/10 13/37/10
f 14/44/11 9/43/11 10/42/11 13/41/11
f 15/48/12 12/47/12 11/46/12 16/45/12
o cube
v 0.12763544017989634 -0.15812623257845818 -0.22786722663026515
v 0.10371772565707821 -0.273611174142369 -0.26929392338471414
v 0.12763544017989634 -0.15812623257845818 -0.22786722663026515
v 0.10371772565707821 -0.273611174142369 -0.26929392338471414
v -0.22104180076208635 -0.273611174142369 -0.08179392338471426
v -0.19712408623926822 -0.15812623257845818 -0.04036722663026526
v -0.22104180076208635 -0.273611174142369 -0.08179392338471426
v -0.19712408623926822 -0.15812623257845818 -0.04036722663026526
vt 0 0.5
vt 1 0.5
vt 1 0
vt 0 0
vt 0 0.875
vt 0.0625 0.875
vt 0.0625 0.875
vt 0 0.875
vt 0 1
vt 0.1875 1
vt 0.1875 0.875
vt 0 0.875
vt 0 0.5
vt 1 0.5
vt 1 0
vt 0 0
vt 0 0.625
vt 1 0.625
vt 1 0.3125
vt 0 0.3125
vt 0 1
vt 0.125 1
vt 0.125 0.875
vt 0 0.875
vn -0.19134171618254495 -0.9238795325112867 -0.3314135740355922
vn 0.8660254037844388 0 -0.4999999999999999
vn 0.19134171618254495 0.9238795325112867 0.3314135740355922
vn -0.8660254037844388 0 0.4999999999999999
vn -0.46193976625564304 0.38268343236509017 -0.8001031451912657
vn 0.46193976625564304 -0.38268343236509017 0.8001031451912657
g Frond
f 20/52/13 23/51/13 21/50/13 18/49/13
f 19/56/14 20/55/14 18/54/14 17/53/14
f 24/60/15 19/59/15 17/58/15 22/57/15
f 23/64/16 24/63/16 22/62/16 21/61/16
f 22/68/17 17/67/17 18/66/17 21/65/17
f 23/72/18 20/71/18 19/70/18 24/69/18
o cube
v 0.27071034443871733 -0.21966788428832046 0.08862634955347096
v 0.36411342119096435 -0.45063776741614203 0.06791938596306896
v 0.27071034443871733 -0.21966788428832046 0.08862634955347096
v 0.36411342119096435 -0.45063776741614203 0.06791938596306896
v 0.28294856596417584 -0.45063776741614203 -0.2981916167069061
v 0.18954548921192882 -0.21966788428832046 -0.27748465311650405
v 0.28294856596417584 -0.45063776741614203 -0.2981916167069061
v 0.18954548921192882 -0.21966788428832046 -0.27748465311650405
vt 0 1
vt 1 1
vt 1 0.5
vt 0 0.5
vt 0 1
vt 0.125 1
vt 0.125 0.8125
vt 0 0.8125
vt 0 1
vt 0.1875 1
vt 0.1875 0.8125
vt 0 0.8125
vt 0 1
vt 1 1
vt 1 0.5
vt 0 0.5
vt 0 1
vt 1 1
vt 1 0.5
vt 0 0.5
vt 0 1
vt 0.1875 1
vt 0.1875 0.75
vt 0 0.75
vn 0.37361230700898823 -0.9238795325112868 -0.08282785436160806
vn 0.2164396139381028 0 0.9762960071199334
vn -0.37361230700898823 0.9238795325112868 0.08282785436160806
vn -0.2164396139381028 0 -0.9762960071199334
vn 0.9019798986506 0.3826834323650896 -0.19996412934205768
vn -0.9019798986506 -0.3826834323650896 0.19996412934205768
g Frond
f 28/76/19 31/75/19 29/74/19 26/73/19
f 27/80/20 28/79/20 26/78/20 25/77/20
f 32/84/21 27/83/21 25/82/21 30/81/21
f 31/88/22 32/87/22 30/86/22 29/85/22
f 30/92/23 25/91/23 26/90/23 29/89/23
f 31/96/24 28/95/24 27/94/24 32/93/24
o cube
v 0.056207427613394256 0 0.13618050133498752
v 0.1964360771934201 -0.12052267681622614 0.10509255817346869
v 0.056207427613394256 0 0.13618050133498752
v 0.1964360771934201 -0.12052267681622614 0.10509255817346869
v 0.11527122196663159 -0.12052267681622614 -0.26101844449650635
v -0.024957427613394256 0 -0.22993050133498752
v 0.11527122196663159 -0.12052267681622614 -0.26101844449650635
v -0.024957427613394256 0 -0.22993050133498752
vt 0 0.5
vt 1 0.5
vt 1 0
vt 0 0
vt 0 0.875
vt 0.0625 0.875
vt 0.0625 0.875
vt 0 0.875
vt 0 1
vt 0.1875 1
vt 0.1875 0.875
vt 0 0.875
vt 0 0.5
vt 1 0.5
vt 1 0
vt 0 0
vt 0 0.5
vt 1 0.5
vt 1 0
vt 0 0
vt 0 1
vt 0.125 1
vt 0.125 0.875
vt 0 0.875
vn 0.7478861310934712 -0.6427876096865395 -0.16580236352810046
vn 0.21643961393810277 0 0.9762960071199334
vn -0.7478861310934712 0.6427876096865395 0.16580236352810046
vn -0.21643961393810277 0 -0.9762960071199334
vn 0.6275509767631346 0.766044443118978 -0.13912470208475042
vn -0.6275509767631346 -0.766044443118978 0.13912470208475042
g Frond
f 36/100/25 39/99/25 37/98/25 34/97/25
f 35/104/26 36/103/26 34/102/26 33/101/26
f 40/108/27 35/107/27 33/106/27 38/105/27
f 39/112/28 40/111/28 38/110/28 37/109/28
f 38/116/29 33/115/29 34/114/29 37/113/29
f 39/120/30 36/119/30 35/118/30 40/117/30
o cube
v 0.19642688989788384 -0.12051284662737734 0.1050945949478532
v 0.2707183089516137 -0.21968201416378175 0.0886245838634713
v 0.19642688989788384 -0.12051284662737734 0.1050945949478532
v 0.2707183089516137 -0.21968201416378175 0.0886245838634713
v 0.18955345372482515 -0.21968201416378175 -0.27748641880650377
v 0.11526203467109533 -0.12051284662737734 -0.26101640772212187
v 0.18955345372482515 -0.21968201416378175 -0.27748641880650377
v 0.11526203467109533 -0.12051284662737734 -0.26101640772212187
vt 0 0.5
vt 1 0.5
vt 1 0
vt 0 0
vt 0 0.875
vt 0.0625 0.875
vt 0.0625 0.875
vt 0 0.875
vt 0 1
vt 0.1875 1
vt 0.1875 0.875
vt 0 0.875
vt 0 0.5
vt 1 0.5
vt 1 0
vt 0 0
vt 0 0.625
vt 1 0.625
vt 1 0.3125
vt 0 0.3125
vt 0 1
vt 0.125 1
vt 0.125 0.875
vt 0 0.875
vn 0.5943313524298387 -0.7933533402912353 -0.13176008867505518
vn 0.21643961393810274 0 0.9762960071199334
vn -0.5943313524298387 0.7933533402912353 0.13176008867505518
vn -0.21643961393810274 0 -0.9762960071199334
vn 0.774547698361595 0.6087614290087205 -0.17171309068913918
vn -0.774547698361595 -0.6087614290087205 0.17171309068913918
g Frond
f 44/124/31 47/123/31 45/122/31 42/121/31
f 43/128/32 44/127/32 42/126/32 41/125/32
f 48/132/33 43/131/33 41/130/33 46/129/33
f 47/136/34 48/135/34 46/134/34 45/133/34
f 46/140/35 41/139/35 42/138/35 45/137/35
f 47/144/36 44/143/36 43/142/36 48/141/36
o cube
v -0.1304567539881919 0.03256097648778321 -0.37805778073020124
v -0.3257665514578103 -0.04261547338828506 -0.5148151732046398
v -0.1304567539881919 0.03256097648778321 -0.37805778073020124
v -0.3257665514578103 -0.04261547338828506 -0.5148151732046398
v -0.5408577150894527 -0.04261547338828506 -0.20763315659626785
v -0.3455479176198343 0.03256097648778321 -0.07087576412182933
v -0.5408577150894527 -0.04261547338828506 -0.20763315659626785
v -0.3455479176198343 0.03256097648778321 -0.07087576412182933
vt 0 1
vt 1 1
vt 1 0.5
vt 0 0.5
vt 0 1
vt 0.125 1
vt 0.125 0.8125
vt 0 0.8125
vt 0 1
vt 0.1875 1
vt 0.1875 0.8125
vt 0 0.8125
vt 0 1
vt 1 1
vt 1 0.5
vt 0 0.5
vt 0 1
vt 1 1
vt 1 0.5
vt 0 0.5
vt 0 1
vt 0.1875 1
vt 0.1875 0.75
vt 0 0.75
vn -0.7812391898784737 -0.3007057995042731 -0.5470295698977542
vn 0.5735764363510462 0 -0.8191520442889919
vn 0.7812391898784737 0.3007057995042731 0.5470295698977542
vn -0.5735764363510462 0 0.8191520442889919
vn -0.24632377039348097 0.953716950748227 -0.17247776086975314
vn 0.24632377039348097 -0.953716950748227 0.17247776086975314
g Frond
f 52/148/37 55/147/37 53/146/37 50/145/37
f 51/152/38 52/151/38 50/150/38 49/149/38
f 56/156/39 51/155/39 49/154/39 54/153/39
f 55/160/40 56/159/40 54/158/40 53/157/40
f 54/164/41 49/163/41 50/162/41 53/161/41
f 55/168/42 52/167/42 51/166/42 56/165/42
o cube
v 0.12317058181582116 0 -0.20046600830418596
v -0.02808703395510359 0.032559033312549446 -0.3063777310786154
v 0.12317058181582116 0 -0.20046600830418596
v -0.02808703395510359 0.032559033312549446 -0.3063777310786154
v -0.24317819758674591 0.032559033312549446 0.0008042855297565321
v -0.09192058181582116 0 0.10671600830418596
v -0.24317819758674591 0.032559033312549446 0.0008042855297565321
v -0.09192058181582116 0 0.10671600830418596
vt 0 0.5
vt 1 0.5
vt 1 0
vt 0 0
vt 0 0.875
vt 0.0625 0.875
vt 0.0625 0.875
vt 0 0.875
vt 0 1
vt 0.1875 1
vt 0.1875 0.875
vt 0 0.875
vt 0 0.5
vt 1 0.5
vt 1 0
vt 0 0
vt 0 0.5
vt 1 0.5
vt 1 0
vt 0 0
vt 0 1
vt 0.125 1
vt 0.125 0.875
vt 0 0.875
vn -0.8067072841115988 0.17364817766693033 -0.5648625214636235
vn 0.5735764363510463 0 -0.8191520442889917
vn 0.8067072841115988 -0.17364817766693033 0.5648625214636235
vn -0.5735764363510463 0 0.8191520442889917
vn 0.14224425972292407 0.9848077530122081 0.09960050292505124
vn -0.14224425972292407 -0.9848077530122081 -0.09960050292505124
g Frond
f 60/172/43 63/171/43 61/170/43 58/169/43
f 59/176/44 60/175/44 58/174/44 57/173/44
f 64/180/45 59/179/45 57/178/45 62/177/45
f 63/184/46 64/183/46 62/182/46 61/181/46
f 62/188/47 57/187/47 58/186/47 61/185/47
f 63/192/48 60/191/48 59/190/48 64/189/48
o cube
v -0.028078143688448576 0.03255808379706761 -0.3063715060468868
v -0.13047214922457256 0.032558083797067615 -0.37806856059076754
v -0.028078143688448576 0.03255808379706761 -0.3063715060468868
v -0.13047214922457256 0.032558083797067615 -0.37806856059076754
v -0.34556331285621494 0.032558083797067615 -0.07088654398239569
v -0.24316930732009095 0.03255808379706761 0.0008105105614850672
v -0.34556331285621494 0.032558083797067615 -0.07088654398239569
v -0.24316930732009095 0.03255808379706761 0.0008105105614850672
vt 0 0.5
vt 1 0.5
vt 1 0
vt 0 0
vt 0 0.875
vt 0.0625 0.875
vt 0.0625 0.875
vt 0 0.875
vt 0 1
vt 0.1875 1
vt 0.1875 0.875
vt 0 0.875
vt 0 0.5
vt 1 0.5
vt 1 0
vt 0 0
vt 0 0.625
vt 1 0.625
vt 1 0.3125
vt 0 0.3125
vt 0 1
vt 0.125 1
vt 0.125 0.875
vt 0 0.875
vn -0.8191520442889918 0 -0.5735764363510462
vn 0.5735764363510463 0 -0.8191520442889917
vn 0.8191520442889918 0 0.5735764363510462
vn -0.5735764363510463 0 0.8191520442889917
vn 0 1 0
vn 0 -1 0
g Frond
f 68/196/49 71/195/49 69/194/49 66/193/49
f 67/200/50 68/199/50 66/198/50 65/197/50
f 72/204/51 67/203/51 65/202/51 70/201/51
f 71/208/52 72/207/52 70/206/52 69/205/52
f 70/212/53 65/211/53 66/210/53 69/209/53
f 71/216/54 68/215/54 67/214/54 72/213/54
o cube
v 0.1651558620436471 -0.13895576883932081 -0.34756863506645347
v 0.14418070726899393 -0.3304668796190653 -0.506890753211072
v 0.1651558620436471 -0.13895576883932081 -0.34756863506645347
v 0.14418070726899393 -0.3304668796190653 -0.506890753211072
v -0.227611115746185 -0.3304668796190653 -0.4579434311285527
v -0.20663596097153183 -0.13895576883932081 -0.29862131298393413
v -0.227611115746185 -0.3304668796190653 -0.4579434311285527
v -0.20663596097153183 -0.13895576883932081 -0.29862131298393413
vt 0 1
vt 1 1
vt 1 0.5
vt 0 0.5
vt 0 1
vt 0.125 1
vt 0.125 0.8125
vt 0 0.8125
vt 0 1
vt 0.1875 1
vt 0.1875 0.8125
vt 0 0.8125
vt 0 1
vt 1 1
vt 1 0.5
vt 0 0.5
vt 0 1
vt 1 1
vt 1 0.5
vt 0 0.5
vt 0 1
vt 0.1875 1
vt 0.1875 0.75
vt 0 0.75
vn -0.0839006190986127 -0.766044443118978 -0.637288472578474
vn 0.9914448613738104 0 -0.13052619222005155
vn 0.0839006190986127 0.766044443118978 0.637288472578474
vn -0.9914448613738104 0 0.13052619222005155
vn -0.09998886423165002 0.6427876096865395 -0.759490826714273
vn 0.09998886423165002 -0.6427876096865395 0.759490826714273
g Frond
f 76/220/55 79/219/55 77/218/55 74/217/55
f 75/224/56 76/223/56 74/222/56 73/221/56
f 80/228/57 75/227/57 73/226/57 78/225/57
f 79/232/58 80/231/58 78/230/58 77/229/58
f 78/236/59 73/235/59 74/234/59 77/233/59
f 79/240/60 76/239/60 75/238/60 80/237/60
o cube
v 0.20152091150758947 0 -0.07134866104125966
v 0.1789101969859508 -0.07175314356845429 -0.24309408886065093
v 0.20152091150758947 0 -0.07134866104125966
v 0.1789101969859508 -0.07175314356845429 -0.24309408886065093
v -0.19288162602922815 -0.07175314356845429 -0.19414676677813164
v -0.17027091150758947 0 -0.022401338958740344
v -0.19288162602922815 -0.07175314356845429 -0.19414676677813164
v -0.17027091150758947 0 -0.022401338958740344
vt 0 0.5
vt 1 0.5
vt 1 0
vt 0 0
vt 0 0.875
vt 0.0625 0.875
vt 0.0625 0.875
vt 0 0.875
vt 0 1
vt 0.1875 1
vt 0.1875 0.875
vt 0 0.875
vt 0 0.5
vt 1 0.5
vt 1 0
vt 0 0
vt 0 0.5
vt 1 0.5
vt 1 0
vt 0 0
vt 0 1
vt 0.125 1
vt 0.125 0.875
vt 0 0.875
vn -0.12059047744873953 -0.3826834323650896 -0.9159756150367535
vn 0.9914448613738105 0 -0.13052619222005157
vn 0.12059047744873953 0.3826834323650896 0.9159756150367535
vn -0.9914448613738105 0 0.13052619222005157
vn -0.049950211252314726 0.9238795325112868 -0.3794095225512602
vn 0.049950211252314726 -0.9238795325112868 0.3794095225512602
g Frond
f 84/244/61 87/243/61 85/242/61 82/241/61
f 83/248/62 84/247/62 82/246/62 81/245/62
f 88/252/63 83/251/63 81/250/63 86/249/63
f 87/256/64 88/255/64 86/254/64 85/253/64
f 86/260/65 81/259/65 82/258/65 85/257/65
f 87/264/66 84/263/66 83/262/66 88/261/66
o cube
v 0.1789101969859508 -0.07175314356845428 -0.24309408886065093
v 0.1651496127393358 -0.13891559461180722 -0.3476161032453777
v 0.1789101969859508 -0.07175314356845428 -0.24309408886065093
v 0.1651496127393358 -0.13891559461180722 -0.3476161032453777
v -0.20664221027584315 -0.13891559461180722 -0.2986687811628584
v -0.19288162602922815 -0.07175314356845428 -0.19414676677813164
v -0.20664221027584315 -0.13891559461180722 -0.2986687811628584
v -0.19288162602922815 -0.07175314356845428 -0.19414676677813164
vt 0 0.5
vt 1 0.5
vt 1 0
vt 0 0
vt 0 0.875
vt 0.0625 0.875
vt 0.0625 0.875
vt 0 0.875
vt 0 1
vt 0.1875 1
vt 0.1875 0.875
vt 0 0.875
vt 0 0.5
vt 1 0.5
vt 1 0
vt 0 0
vt 0 0.625
vt 1 0.625
vt 1 0.3125
vt 0 0.3125
vt 0 1
vt 0.125 1
vt 0.125 0.875
vt 0 0.875
vn -0.11008467397291988 -0.5372996083468237 -0.8361761150778141
vn 0.9914448613738104 0 -0.13052619222005157
vn 0.11008467397291988 0.5372996083468237 0.8361761150778141
vn -0.9914448613738104 0 0.13052619222005157
vn -0.07013167195883586 0.8433914458128859 -0.5327029357136193
vn 0.07013167195883586 -0.8433914458128859 0.5327029357136193
g Frond
f 92/268/67 95/267/67 93/266/67 90/265/67
f 91/272/68 92/271/68 90/270/68 89/269/68
f 96/276/69 91/275/69 89/274/69 94/273/69
f 95/280/70 96/279/70 94/278/70 93/277/70
f 94/284/71 89/283/71 90/282/71 93/281/71
f 95/288/72 92/287/72 91/286/72 96/285/72
o cube
v 0.37810954616600856 -0.008131342619071544 -0.0717941763171917
v 0.5637105152925345 -0.11378590805424642 -0.2017533739986129
v 0.37810954616600856 -0.008131342619071544 -0.0717941763171917
v 0.5637105152925345 -0.11378590805424642 -0.2017533739986129
v 0.3486193516608922 -0.11378590805424642 -0.5089353906069848
v 0.16301838253436618 -0.008131342619071544 -0.3789761929255636
v 0.3486193516608922 -0.11378590805424642 -0.5089353906069848
v 0.16301838253436618 -0.008131342619071544 -0.3789761929255636
vt 0 1
vt 1 1
vt 1 0.5
vt 0 0.5
vt 0 1
vt 0.125 1
vt 0.125 0.8125
vt 0 0.8125
vt 0 1
vt 0.1875 1
vt 0.1875 0.8125
vt 0 0.8125
vt 0 1
vt 1 1
vt 1 0.5
vt 0 0.5
vt 0 1
vt 1 1
vt 1 0.5
vt 0 0.5
vt 0 1
vt 0.1875 1
vt 0.1875 0.75
vt 0 0.75
vn 0.7424038765061041 -0.42261826174069944 -0.5198367907256847
vn 0.5735764363510464 0 0.8191520442889918
vn -0.7424038765061041 0.42261826174069944 0.5198367907256847
vn -0.5735764363510464 0 -0.8191520442889918
vn 0.34618861305875415 0.90630778703665 -0.242403876506104
vn -0.34618861305875415 -0.90630778703665 0.242403876506104
g Frond
f 100/292/73 103/291/73 101/290/73 98/289/73
f 99/296/74 100/295/74 98/294/74 97/293/74
f 104/300/75 99/299/75 97/298/75 102/297/75
f 103/304/76 104/303/76 102/302/76 101/301/76
f 102/308/77 97/307/77 98/306/77 101/305/77
f 103/312/78 100/311/78 99/310/78 104/309/78
o cube
v 0.12317058181582118 0 0.10671600830418596
v 0.2766154055130825 0.008178635131000499 -0.0007272139478963491
v 0.12317058181582118 0 0.10671600830418596
v 0.2766154055130825 0.008178635131000499 -0.0007272139478963491
v 0.061524241881440137 0.00817863513100052 -0.3079092305562683
v -0.09192058181582118 0 -0.20046600830418596
v 0.061524241881440137 0.00817863513100052 -0.3079092305562683
v -0.09192058181582118 0 -0.20046600830418596
vt 0 0.5
vt 1 0.5
vt 1 0
vt 0 0
vt 0 0.875
vt 0.0625 0.875
vt 0.0625 0.875
vt 0 0.875
vt 0 1
vt 0.1875 1
vt 0.1875 0.875
vt 0 0.875
vt 0 0.5
vt 1 0.5
vt 1 0
vt 0 0
vt 0 0.5
vt 1 0.5
vt 1 0
vt 0 0
vt 0 1
vt 0.125 1
vt 0.125 0.875
vt 0 0.875
vn 0.8183723930520603 0.04361938736533595 -0.5730305186777723
vn 0.5735764363510462 0 0.8191520442889917
vn -0.8183723930520603 -0.04361938736533595 0.5730305186777723
vn -0.5735764363510462 0 -0.8191520442889917
vn -0.035730910330948405 0.9990482215818577 0.025019052760825344
vn 0.035730910330948405 -0.9990482215818577 -0.025019052760825344
g Frond
f 108/316/79 111/315/79 109/314/79 106/313/79
f 107/320/80 108/319/80 106/318/80 105/317/80
f 112/324/81 107/323/81 105/322/81 110/321/81
f 111/328/82 112/327/82 110/326/82 109/325/82
f 110/332/83 105/331/83 106/330/83 109/329/83
f 111/336/84 108/335/84 107/334/84 112/333/84
o cube
v 0.27660648978093894 0.008179110341036078 -0.0007209710850407738
v 0.37812450040521056 -0.008136663686470355 -0.07180464738820916
v 0.27660648978093894 0.008179110341036078 -0.0007209710850407738
v 0.37812450040521056 -0.008136663686470355 -0.07180464738820916
v 0.16303333677356818 -0.008136663686470341 -0.37898666399658104
v 0.06151532614929656 0.008179110341036105 -0.3079029876934127
v 0.16303333677356818 -0.008136663686470341 -0.37898666399658104
v 0.06151532614929656 0.008179110341036105 -0.3079029876934127
vt 0 0.5
vt 1 0.5
vt 1 0
vt 0 0
vt 0 0.875
vt 0.0625 0.875
vt 0.0625 0.875
vt 0 0.875
vt 0 1
vt 0.1875 1
vt 0.1875 0.875
vt 0 0.875
vt 0 0.5
vt 1 0.5
vt 1 0
vt 0 0
vt 0 0.625
vt 1 0.625
vt 1 0.3125
vt 0 0.3125
vt 0 1
vt 0.125 1
vt 0.125 0.875
vt 0 0.875
vn 0.8121440849941729 -0.13052619222005155 -0.5686694104253472
vn 0.5735764363510462 0 0.8191520442889917
vn -0.8121440849941729 0.13052619222005155 0.5686694104253472
vn -0.5735764363510462 0 -0.8191520442889917
vn 0.10692079719031312 0.9914448613738105 -0.07486674818404877
vn -0.10692079719031312 -0.9914448613738105 0.07486674818404877
g Frond
f 116/340/85 119/339/85 117/338/85 114/337/85
f 115/344/86 116/343/86 114/342/86 113/341/86
f 120/348/87 115/347/87 113/346/87 118/345/87
f 119/352/88 120/351/88 118/350/88 117/349/88
f 118/356/89 113/355/89 114/354/89 117/353/89
f 119/360/90 116/359/90 115/358/90 120/357/90
o cube
v 0.2573438860123172 0.1502905659451408 -0.27090600050423536
v 0.3114022888584986 0.16119541278647484 -0.514747697916895
v 0.2573438860123172 0.1502905659451408 -0.27090600050423536
v 0.3114022888584986 0.16119541278647484 -0.514747697916895
v -0.05470871381147637 0.16119541278647484 -0.5959125531436835
v -0.10876711665765777 0.1502905659451408 -0.352070855731024
v -0.05470871381147637 0.16119541278647484 -0.5959125531436835
v -0.10876711665765777 0.1502905659451408 -0.352070855731024
vt 0 1
vt 1 1
vt 1 0.5
vt 0 0.5
vt 0 1
vt 0.125 1
vt 0.125 0.8125
vt 0 0.8125
vt 0 1
vt 0.1875 1
vt 0.1875 0.8125
vt 0 0.8125
vt 0 1
vt 1 1
vt 1 0.5
vt 0 0.5
vt 0 1
vt 1 1
vt 1 0.5
vt 0 0.5
vt 0 1
vt 0.1875 1
vt 0.1875 0.75
vt 0 0.75
vn 0.21623361138472555 0.04361938736533599 -0.9753667896506382
vn 0.9762960071199334 0 0.21643961393810288
vn -0.21623361138472555 -0.04361938736533599 0.9753667896506382
vn -0.9762960071199334 0 -0.21643961393810288
vn -0.009440963361569887 0.9990482215818578 0.042585433717795204
vn 0.009440963361569887 -0.9990482215818578 -0.042585433717795204
g Frond
f 124/364/91 127/363/91 125/362/91 122/361/91
f 123/368/92 124/367/92 122/366/92 121/365/92
f 128/372/93 123/371/93 121/370/93 126/369/93
f 127/376/94 128/375/94 126/374/94 125/373/94
f 126/380/95 121/379/95 122/378/95 125/377/95
f 127/384/96 124/383/96 123/382/96 128/381/96
o cube
v 0.1986805013349875 0 -0.006292572386605709
v 0.23192367987670945 0.10754558181582113 -0.156242860523507
v 0.1986805013349875 0 -0.006292572386605709
v 0.23192367987670945 0.10754558181582113 -0.156242860523507
v -0.13418732279326553 0.10754558181582113 -0.23740771575029557
v -0.1674305013349875 0 -0.08745742761339428
v -0.13418732279326553 0.10754558181582113 -0.23740771575029557
v -0.1674305013349875 0 -0.08745742761339428
vt 0 0.5
vt 1 0.5
vt 1 0
vt 0 0
vt 0 0.875
vt 0.0625 0.875
vt 0.0625 0.875
vt 0 0.875
vt 0 1
vt 0.1875 1
vt 0.1875 0.875
vt 0 0.875
vt 0 0.5
vt 1 0.5
vt 1 0
vt 0 0
vt 0 0.5
vt 1 0.5
vt 1 0
vt 0 0
vt 0 1
vt 0.125 1
vt 0.125 0.875
vt 0 0.875
vn 0.17729695222251712 0.573576436351046 -0.7997348700634735
vn 0.9762960071199334 0 0.21643961393810285
vn -0.17729695222251712 -0.573576436351046 0.7997348700634735
vn -0.9762960071199334 0 -0.21643961393810285
vn -0.12414466244781325 0.8191520442889919 0.5599803845876069
vn 0.12414466244781325 -0.8191520442889919 -0.5599803845876069
g Frond
f 132/388/97 135/387/97 133/386/97 130/385/97
f 131/392/98 132/391/98 130/390/98 129/389/98
f 136/396/99 131/395/99 129/394/99 134/393/99
f 135/400/100 136/399/100 134/398/100 133/397/100
f 134/404/101 129/403/101 130/402/101 133/401/101
f 135/408/102 132/407/102 131/406/102 136/405/102
o cube
v 0.23192054750439392 0.10753804802943223 -0.15622873130506681
v 0.2573438860123172 0.15029056594514084 -0.2709060005042353
v 0.23192054750439392 0.10753804802943223 -0.15622873130506681
v 0.2573438860123172 0.15029056594514084 -0.2709060005042353
v -0.10876711665765779 0.15029056594514084 -0.3520708557310239
v -0.13419045516558106 0.10753804802943223 -0.2373935865318554
v -0.10876711665765779 0.15029056594514084 -0.3520708557310239
v -0.13419045516558106 0.10753804802943223 -0.2373935865318554
vt 0 0.5
vt 1 0.5
vt 1 0
vt 0 0
vt 0 0.875
vt 0.0625 0.875
vt 0.0625 0.875
vt 0 0.875
vt 0 1
vt 0.1875 1
vt 0.1875 0.875
vt 0 0.875
vt 0 0.5
vt 1 0.5
vt 1 0
vt 0 0
vt 0 0.625
vt 1 0.625
vt 1 0.3125
vt 0 0.3125
vt 0 1
vt 0.125 1
vt 0.125 0.875
vt 0 0.875
vn 0.2033867080633861 0.3420201433256688 -0.917418153593348
vn 0.9762960071199334 0 0.21643961393810285
vn -0.2033867080633861 -0.3420201433256688 0.917418153593348
vn -0.9762960071199334 0 -0.21643961393810285
vn -0.07402670778046239 0.9396926207859085 0.33391290028343784
vn 0.07402670778046239 -0.9396926207859085 -0.33391290028343784
g Frond
f 140/412/103 143/411/103 141/410/103 138/409/103
f 139/416/104 140/415/104 138/414/104 137/413/104
f 144/420/105 139/419/105 137/418/105 142/417/105
f 143/424/106 144/423/106 142/422/106 141/421/106
f 142/428/107 137/427/107 138/426/107 141/425/107
f 143/432/108 140/431/108 139/430/108 144/429/108
