# Made in Blockbench 4.7.4

o cube
v 0 0.3125 0.171875
v 0.483449695355086 0.6834639963464557 0.17187498752237218
v 0 0.3125 0.171875
v 0.483449695355086 0.6834639963464557 0.17187498752237218
v 0.4834496872895959 0.6834639963464557 -0.14062501247762776
v 0 0.3125 -0.14062499999999994
v 0.4834496872895959 0.6834639963464557 -0.14062501247762776
v 0 0.3125 -0.14062499999999994
vt 0 1
vt 0.3125 1
vt 0.3125 1
vt 0 1
vt 0 1
vt 0.5625 1
vt 0.5625 1
vt 0 1
vt 0 1
vt 0.3125 1
vt 0.3125 1
vt 0 1
vt 0 1
vt 0.5625 1
vt 0.5625 1
vt 0 1
vt 0.28125 0.59375
vt 0.59375 0.59375
vt 0.59375 0
vt 0.28125 0
vt 0 1
vt 0.03125 1
vt 0.03125 0.59375
vt 0 0.59375
vn 0.7933533396058928 0.6087614299018759 0
vn 0 0 0.9999999999999998
vn -0.7933533396058928 -0.6087614299018759 0
vn 0 0 -0.9999999999999998
vn -0.6087614299018757 0.7933533396058932 0
vn 0.6087614299018757 -0.7933533396058932 0
g 0
f 4/4/1 7/3/1 5/2/1 2/1/1
f 3/8/2 4/7/2 2/6/2 1/5/2
f 8/12/3 3/11/3 1/10/3 6/9/3
f 7/16/4 8/15/4 6/14/4 5/13/4
f 6/20/5 1/19/5 2/18/5 5/17/5
f 7/24/6 4/23/6 3/22/6 8/21/6
o cube
v -0.17809705731374065 0.5351882764033546 0.14724635931789087
v 0.011999214383292545 0.984466653736034 0.5124178776119692
v -0.17809705731374065 0.5351882764033546 0.14724635931789087
v 0.011999214383292545 0.984466653736034 0.5124178776119692
v 0.3446282723560511 0.9844666541105069 0.3392621390638194
v 0.15453200065901784 0.5351882767778275 -0.02590937923025899
v 0.3446282723560511 0.9844666541105069 0.3392621390638194
v 0.15453200065901784 0.5351882767778275 -0.02590937923025899
vt 0 1
vt 0.3125 1
vt 0.3125 1
vt 0 1
vt 0 1
vt 0.5625 1
vt 0.5625 1
vt 0 1
vt 0 1
vt 0.3125 1
vt 0.3125 1
vt 0 1
vt 0 1
vt 0.5625 1
vt 0.5625 1
vt 0 1
vt 0.28125 0.59375
vt 0.59375 0.59375
vt 0.59375 0
vt 0.28125 0
vt 0 1
vt 0.03125 1
vt 0.03125 0.59375
vt 0 0.59375
vn 0.3119528561182084 0.7372773371613197 0.5992558248928466
vn -0.8870108212606895 0 0.46174863612839956
vn -0.3119528561182084 -0.7372773371613197 -0.5992558248928466
vn 0.8870108212606895 0 -0.46174863612839956
vn -0.3404368054810313 0.6755902072323974 -0.6539729760208421
vn 0.3404368054810313 -0.6755902072323974 0.6539729760208421
g 0
f 12/28/7 15/27/7 13/26/7 10/25/7
f 11/32/8 12/31/8 10/30/8 9/29/8
f 16/36/9 11/35/9 9/34/9 14/33/9
f 15/40/10 16/39/10 14/38/10 13/37/10
f 14/44/11 9/43/11 10/42/11 13/41/11
f 15/48/12 12/47/12 11/46/12 16/45/12
o cube
v 0.043435606891654155 0.4913219283141923 -0.1447070882042879
v -0.10666794405883384 1.0724931950074068 -0.24981071986018588
v 0.043435606891654155 0.4913219283141923 -0.1447070882042879
v -0.10666794405883384 1.0724931950074068 -0.24981071986018588
v -0.2859105738116732 1.0724931948056158 0.0061742986062989225
v -0.13580702286118518 0.4913219281124013 0.1112779302621969
v -0.2859105738116732 1.0724931948056158 0.0061742986062989225
v -0.13580702286118518 0.4913219281124013 0.1112779302621969
vt 0 1
vt 0.3125 1
vt 0.3125 1
vt 0 1
vt 0 1
vt 0.5625 1
vt 0.5625 1
vt 0 1
vt 0 1
vt 0.3125 1
vt 0.3125 1
vt 0 1
vt 0 1
vt 0.5625 1
vt 0.5625 1
vt 0 1
vt 0.28125 0.59375
vt 0.59375 0.59375
vt 0.59375 0
vt 0.28125 0
vt 0 1
vt 0.03125 1
vt 0.03125 0.59375
vt 0 0.59375
vn -0.24632377591874952 0.9537169504709164 -0.1724777545122428
vn 0.5735764152090856 0 -0.8191520590927516
vn 0.24632377591874952 -0.9537169504709164 0.1724777545122428
vn -0.5735764152090856 0 0.8191520590927516
vn 0.7812392036585365 0.30070580038379013 0.5470295497343082
vn -0.7812392036585365 -0.30070580038379013 -0.5470295497343082
g 0
f 20/52/13 23/51/13 21/50/13 18/49/13
f 19/56/14 20/55/14 18/54/14 17/53/14
f 24/60/15 19/59/15 17/58/15 22/57/15
f 23/64/16 24/63/16 22/62/16 21/61/16
f 22/68/17 17/67/17 18/66/17 21/65/17
f 23/72/18 20/71/18 19/70/18 24/69/18
o cube
v -0.012236832919576446 0.3124999999862238 -0.07732295543796736
v -0.4119859561111461 0.6819633943260015 -0.024694974520008572
v -0.012236832919576446 0.3124999999862238 -0.07732295543796736
v -0.4119859561111461 0.6819633943260015 -0.024694974520008572
v -0.3793544016589422 0.6819633943627381 0.22316623998123775
v 0.020394721532627447 0.3125000000229603 0.1705382590632789
v -0.3793544016589422 0.6819633943627381 0.22316623998123775
v 0.020394721532627447 0.3125000000229603 0.1705382590632789
vt 0 1
vt 0.3125 1
vt 0.3125 1
vt 0 1
vt 0 1
vt 0.5625 1
vt 0.5625 1
vt 0 1
vt 0 1
vt 0.3125 1
vt 0.3125 1
vt 0 1
vt 0 1
vt 0.5625 1
vt 0.5625 1
vt 0 1
vt 0.28125 0.59375
vt 0.59375 0.59375
vt 0.59375 0
vt 0.28125 0
vt 0 1
vt 0.03125 1
vt 0.03125 0.59375
vt 0 0.59375
vn -0.7309698252645848 0.6755902067927366 0.09623402224998177
vn -0.1305262178088156 0 -0.9914448580049855
vn 0.7309698252645848 -0.6755902067927366 -0.09623402224998177
vn 0.1305262178088156 0 0.9914448580049855
vn 0.6698104366290423 0.7372773375641946 -0.08818223458874457
vn -0.6698104366290423 -0.7372773375641946 0.08818223458874457
g 0
f 28/76/19 31/75/19 29/74/19 26/73/19
f 27/80/20 28/79/20 26/78/20 25/77/20
f 32/84/21 27/83/21 25/82/21 30/81/21
f 31/88/22 32/87/22 30/86/22 29/85/22
f 30/92/23 25/91/23 26/90/23 29/89/23
f 31/96/24 28/95/24 27/94/24 32/93/24
o cube
v 0.15565542192831217 0.3125000001752365 0.029243080786921172
v 0.1939161569490655 0.5172057207489615 -0.4080792542762033
v 0.15565542192831217 0.3125000001752365 0.029243080786921172
v 0.1939161569490655 0.5172057207489615 -0.4080792542762033
v -0.11739468690755889 0.5172057203984886 -0.4353154158500455
v -0.15565542192831217 0.3124999998247635 0.0020069192130788283
v -0.11739468690755889 0.5172057203984886 -0.4353154158500455
v -0.15565542192831217 0.3124999998247635 0.0020069192130788283
vt 0 1
vt 0.3125 1
vt 0.3125 1
vt 0 1
vt 0 1
vt 0.5625 1
vt 0.5625 1
vt 0 1
vt 0 1
vt 0.3125 1
vt 0.3125 1
vt 0 1
vt 0 1
vt 0.5625 1
vt 0.5625 1
vt 0 1
vt 0.28125 0.59375
vt 0.59375 0.59375
vt 0.59375 0
vt 0.28125 0
vt 0 1
vt 0.03125 1
vt 0.03125 0.59375
vt 0 0.59375
vn 0.0789899045589745 0.42261826182962603 -0.9028590143238697
vn 0.9961947003411982 0 0.08715571703629521
vn -0.0789899045589745 -0.42261826182962603 0.9028590143238697
vn -0.9961947003411982 0 -0.08715571703629521
vn -0.03683359865496245 0.9063077869951828 0.4210100726134941
vn 0.03683359865496245 -0.9063077869951828 -0.4210100726134941
g 0
f 36/100/25 39/99/25 37/98/25 34/97/25
f 35/104/26 36/103/26 34/102/26 33/101/26
f 40/108/27 35/107/27 33/106/27 38/105/27
f 39/112/28 40/111/28 38/110/28 37/109/28
f 38/116/29 33/115/29 34/114/29 37/113/29
f 39/120/30 36/119/30 35/118/30 40/117/30
o cube
v 0.0011857922748556016 0.5350039264437689 0.1029147637972907
v 0.0011857922748556016 0.5350039264437689 0.1029147637972907
v 0.0010643869489833646 0.30427056239012296 0.061759683937878784
v 0.0010643869489833646 0.30427056239012296 0.061759683937878784
v -0.00023339032378888458 0.5459765099236049 0.04140185188011891
v -0.00023339032378888458 0.5459765099236049 0.04140185188011891
v -0.00035479564966112154 0.31524314586995894 0.0002467720207071089
v -0.00035479564966112154 0.31524314586995894 0.0002467720207071089
vt 0 1
vt 0.0625 1
vt 0.0625 0.75
vt 0 0.75
vt 0 1
vt 0 1
vt 0 0.75
vt 0 0.75
vt 0.46875 0.25
vt 0.53125 0.25
vt 0.53125 0
vt 0.46875 0
vt 0 1
vt 0 1
vt 0 0.75
vt 0 0.75
vt 0 1
vt 0.0625 1
vt 0.0625 1
vt 0 1
vt 0 1
vt 0.0625 1
vt 0.0625 1
vt 0 1
vn 0.9997420304221091 0.003477406929281509 -0.022445049532734736
vn 0.022706921578311893 -0.17556133567737703 0.9842065906747485
vn -0.9997420304221091 -0.003477406929281509 0.022445049532734736
vn -0.022706921578311893 0.17556133567737703 -0.9842065906747485
vn 0.000517996057054897 0.9844623532955556 0.17559500740015743
vn -0.000517996057054897 -0.9844623532955556 -0.17559500740015743
g Stem
f 44/124/31 47/123/31 45/122/31 42/121/31
f 43/128/32 44/127/32 42/126/32 41/125/32
f 48/132/33 43/131/33 41/130/33 46/129/33
f 47/136/34 48/135/34 46/134/34 45/133/34
f 46/140/35 41/139/35 42/138/35 45/137/35
f 47/144/36 44/143/36 43/142/36 48/141/36
o cube
v -0.04558596519554248 0.5146640852312634 -0.0069279082336905495
v -0.04558596519554248 0.5146640852312634 -0.0069279082336905495
v 0.0004919815733396282 0.3283986441040915 0.05971872625196162
v 0.0004919815733396282 0.3283986441040915 0.05971872625196162
v -0.04624194062666198 0.4934658930924748 -0.06571954323630608
v -0.04624194062666198 0.4934658930924748 -0.06571954323630608
v -0.00016399385777987607 0.3072004519653029 0.0009270912493460903
v -0.00016399385777987607 0.3072004519653029 0.0009270912493460903
vt 0 1
vt 0.0625 1
vt 0.0625 0.75
vt 0 0.75
vt 0 1
vt 0 1
vt 0 0.75
vt 0 0.75
vt 0.46875 0.25
vt 0.53125 0.25
vt 0.53125 0
vt 0.46875 0
vt 0 1
vt 0 1
vt 0 0.75
vt 0 0.75
vt 0 1
vt 0.0625 1
vt 0.0625 1
vt 0 1
vt 0 1
vt 0.0625 1
vt 0.0625 1
vt 0 1
vn 0.9738742541060201 0.20994199814432898 -0.08656381810323224
vn 0.010495606897911416 0.3391710742206179 0.9406661600418486
vn -0.9738742541060201 -0.20994199814432898 0.08656381810323224
vn -0.010495606897911416 -0.3391710742206179 -0.9406661600418486
vn -0.2268452764006503 0.9169990947799233 -0.3281065082370569
vn 0.2268452764006503 -0.9169990947799233 0.3281065082370569
g Stem
f 52/148/37 55/147/37 53/146/37 50/145/37
f 51/152/38 52/151/38 50/150/38 49/149/38
f 56/156/39 51/155/39 49/154/39 54/153/39
f 55/160/40 56/159/40 54/158/40 53/157/40
f 54/164/41 49/163/41 50/162/41 53/161/41
f 55/168/42 52/167/42 51/166/42 56/165/42
o cube
v 0.06134238250216262 0.8249513198471459 -0.025571639982849947
v 0.06134238250216262 0.8249513198471459 -0.025571639982849947
v -0.000491610757567762 0.3205586299432701 0.06179947809451103
v -0.000491610757567762 0.3205586299432701 0.06179947809451103
v 0.06199786351225289 0.8142064799227859 -0.08713761077553128
v 0.06199786351225289 0.8142064799227859 -0.08713761077553128
v 0.00016387025252262433 0.30981379001890996 0.00023350730182969404
v 0.00016387025252262433 0.30981379001890996 0.00023350730182969404
vt 0 1
vt 0.0625 1
vt 0.0625 0.75
vt 0 0.75
vt 0 1
vt 0 1
vt 0 0.75
vt 0 0.75
vt 0.46875 0.5
vt 0.53125 0.5
vt 0.53125 0
vt 0.46875 0
vt 0 1
vt 0 1
vt 0 0.75
vt 0 0.75
vt 0 1
vt 0.0625 1
vt 0.0625 1
vt 0 1
vt 0 1
vt 0.0625 1
vt 0.0625 1
vt 0 1
vn 0.9927281041041095 -0.11635121537686006 0.030875653874660854
vn -0.010487696161445082 0.17191743878976076 0.9850555326829012
vn -0.9927281041041095 0.11635121537686006 -0.030875653874660854
vn 0.010487696161445082 -0.17191743878976076 -0.9850555326829012
vn 0.1199204717764467 0.9782161258741836 -0.1694470168773061
vn -0.1199204717764467 -0.9782161258741836 0.1694470168773061
g Stem
f 60/172/43 63/171/43 61/170/43 58/169/43
f 59/176/44 60/175/44 58/174/44 57/173/44
f 64/180/45 59/179/45 57/178/45 62/177/45
f 63/184/46 64/183/46 62/182/46 61/181/46
f 62/188/47 57/187/47 58/186/47 61/185/47
f 63/192/48 60/191/48 59/190/48 64/189/48
o cube
v 0.09990491144616631 1.11410974683294 -0.17579264746696988
v 0.09990491144616631 1.11410974683294 -0.17579264746696988
v 0.06134238250216262 0.8249513198471459 -0.025571639982849947
v 0.06134238250216262 0.8249513198471459 -0.025571639982849947
v 0.09827625596247891 1.085477506975316 -0.2313245511084887
v 0.09827625596247891 1.085477506975316 -0.2313245511084887
v 0.059713727018475105 0.7963190799895219 -0.08110354362436889
v 0.059713727018475105 0.7963190799895219 -0.08110354362436889
vt 0 1
vt 0.0625 1
vt 0.0625 0.75
vt 0 0.75
vt 0 1
vt 0 1
vt 0 0.75
vt 0 0.75
vt 0.46875 1
vt 0.53125 1
vt 0.53125 0.59375
vt 0.46875 0.59375
vt 0 1
vt 0 1
vt 0 0.75
vt 0 0.75
vt 0 1
vt 0.0625 1
vt 0.0625 1
vt 0 1
vt 0 1
vt 0.0625 1
vt 0.0625 1
vt 0 1
vn 0.9927281041041096 -0.11635121537686005 0.03087565387466088
vn 0.026058487738998718 0.4581158377219846 0.8885104582643024
vn -0.9927281041041096 0.11635121537686005 -0.03087565387466088
vn -0.026058487738998718 -0.4581158377219846 -0.8885104582643024
vn 0.11752389773410679 0.8812447298614681 -0.4578164037611273
vn -0.11752389773410679 -0.8812447298614681 0.4578164037611273
g Stem
f 68/196/49 71/195/49 69/194/49 66/193/49
f 67/200/50 68/199/50 66/198/50 65/197/50
f 72/204/51 67/203/51 65/202/51 70/201/51
f 71/208/52 72/207/52 70/206/52 69/205/52
f 70/212/53 65/211/53 66/210/53 69/209/53
f 71/216/54 68/215/54 67/214/54 72/213/54
o cube
v 0.11441264673654206 1.1929075971307 -0.34531160152623647
v 0.11441264673654206 1.1929075971307 -0.34531160152623647
v 0.09990491399949197 1.1141097475007349 -0.17579265100882752
v 0.09990491399949197 1.1141097475007349 -0.17579265100882752
v 0.1086490464729194 1.1366628764335795 -0.37194921226188793
v 0.1086490464729194 1.1366628764335795 -0.37194921226188793
v 0.09414131373586931 1.0578650268036145 -0.20243026174447898
v 0.09414131373586931 1.0578650268036145 -0.20243026174447898
vt 0 1
vt 0.0625 1
vt 0.0625 0.75
vt 0 0.75
vt 0 1
vt 0 1
vt 0 0.75
vt 0 0.75
vt 0.46875 0.75
vt 0.53125 0.75
vt 0.53125 0.46875
vt 0.46875 0.46875
vt 0 1
vt 0 1
vt 0 0.75
vt 0 0.75
vt 0 1
vt 0.0625 1
vt 0.0625 1
vt 0 1
vt 0 1
vt 0.0625 1
vt 0.0625 1
vt 0 1
vn 0.9927281041041095 -0.11635121537685994 0.030875653874660847
vn 0.0922176042179623 0.8999155311539251 0.4262017717704235
vn -0.9927281041041095 0.11635121537685994 -0.030875653874660847
vn -0.0922176042179623 -0.8999155311539251 -0.4262017717704235
vn 0.07737457459760001 0.42025519802648065 -0.9041010694261811
vn -0.07737457459760001 -0.42025519802648065 0.9041010694261811
g Stem
f 76/220/55 79/219/55 77/218/55 74/217/55
f 75/224/56 76/223/56 74/222/56 73/221/56
f 80/228/57 75/227/57 73/226/57 78/225/57
f 79/232/58 80/231/58 78/230/58 77/229/58
f 78/236/59 73/235/59 74/234/59 77/233/59
f 79/240/60 76/239/60 75/238/60 80/237/60
o cube
v -0.23510095445694357 1.457807704006749 -0.3397117238015675
v 0.4523990455430562 1.4578077047807347 -0.3397117415456457
v -0.2351009544576802 0.7709620516692213 -0.36970005261523603
v 0.4523990455423196 0.770962052443207 -0.36970007035931424
v 0.4523990455430562 1.4578077047807347 -0.3397117415456457
v -0.23510095445694357 1.457807704006749 -0.3397117238015675
v 0.4523990455423196 0.770962052443207 -0.36970007035931424
v -0.2351009544576802 0.7709620516692213 -0.36970005261523603
vt 0 1
vt 0 1
vt 0 0.4375
vt 0 0.4375
vt 0 1
vt 0.15625 1
vt 0.15625 0.84375
vt 0 0.84375
vt 0 1
vt 0 1
vt 0 0.4375
vt 0 0.4375
vt 0 1
vt 1 1
vt 1 0
vt 0 0
vt 0 1
vt 0 1
vt 0 0.625
vt 0 0.625
vt 0 1
vt 0 1
vt 0 0.625
vt 0 0.625
vn 0.9999999999999998 0 0
vn 0 -0.04361938736533597 0.9990482215818575
vn -0.9999999999999998 0 0
vn 0 0.04361938736533597 -0.9990482215818575
vn 0 0.9990482215818578 0.043619387365335986
vn 0 -0.9990482215818578 -0.043619387365335986
g Flower
f 84/244/61 87/243/61 85/242/61 82/241/61
f 83/248/62 84/247/62 82/246/62 81/245/62
f 88/252/63 83/251/63 81/250/63 86/249/63
f 87/256/64 88/255/64 86/254/64 85/253/64
f 86/260/65 81/259/65 82/258/65 85/257/65
f 87/264/66 84/263/66 83/262/66 88/261/66
o cube
v -0.125 0.375 0.125
v -0.125 0.375 -0.1875
v -0.125 0 0.125
v -0.125 0 -0.1875
v -0.1875 0.375 -0.1875
v -0.1875 0.375 0.125
v -0.1875 0 -0.1875
v -0.1875 0 0.125
vt 0.625 0.375
vt 0.6875 0.375
vt 0.6875 0
vt 0.625 0
vt 0.3125 0.375
vt 0.625 0.375
vt 0.625 0
vt 0.3125 0
vt 0 1
vt 0.0625 1
vt 0.0625 0.625
vt 0 0.625
vt 0.3125 0.375
vt 0.625 0.375
vt 0.625 0
vt 0.3125 0
vt 0.625 0.6875
vt 0.6875 0.6875
vt 0.6875 0.375
vt 0.625 0.375
vt 0.3125 0.375
vt 0.375 0.375
vt 0.375 0.0625
vt 0.3125 0.0625
vn 0 0 -1
vn 1 0 0
vn 0 0 1
vn -1 0 0
vn 0 1 0
vn 0 -1 0
g Pot
f 92/268/67 95/267/67 93/266/67 90/265/67
f 91/272/68 92/271/68 90/270/68 89/269/68
f 96/276/69 91/275/69 89/274/69 94/273/69
f 95/280/70 96/279/70 94/278/70 93/277/70
f 94/284/71 89/283/71 90/282/71 93/281/71
f 95/288/72 92/287/72 91/286/72 96/285/72
o cube
v 0.1875 0.375 -0.125
v 0.1875 0.375 -0.1875
v 0.1875 0 -0.125
v 0.1875 0 -0.1875
v -0.125 0.375 -0.1875
v -0.125 0.375 -0.125
v -0.125 0 -0.1875
v -0.125 0 -0.125
vt 0.3125 0.375
vt 0.625 0.375
vt 0.625 0
vt 0.3125 0
vt 0.625 0.375
vt 0.6875 0.375
vt 0.6875 0
vt 0.625 0
vt 0.3125 0.375
vt 0.625 0.375
vt 0.625 0
vt 0.3125 0
vt 0 1
vt 0.0625 1
vt 0.0625 0.625
vt 0 0.625
vt 0.375 0.375
vt 0.6875 0.375
vt 0.6875 0.3125
vt 0.375 0.3125
vt 0.375 0.375
vt 0.6875 0.375
vt 0.6875 0.3125
vt 0.375 0.3125
vn 0 0 -1
vn 1 0 0
vn 0 0 1
vn -1 0 0
vn 0 1 0
vn 0 -1 0
g Pot
f 100/292/73 103/291/73 101/290/73 98/289/73
f 99/296/74 100/295/74 98/294/74 97/293/74
f 104/300/75 99/299/75 97/298/75 102/297/75
f 103/304/76 104/303/76 102/302/76 101/301/76
f 102/308/77 97/307/77 98/306/77 101/305/77
f 103/312/78 100/311/78 99/310/78 104/309/78
o cube
v 0.1875 0.375 0.1875
v 0.1875 0.375 -0.125
v 0.1875 0 0.1875
v 0.1875 0 -0.125
v 0.125 0.375 -0.125
v 0.125 0.375 0.1875
v 0.125 0 -0.125
v 0.125 0 0.1875
vt 0 1
vt 0.0625 1
vt 0.0625 0.625
vt 0 0.625
vt 0.3125 0.375
vt 0.625 0.375
vt 0.625 0
vt 0.3125 0
vt 0.625 0.375
vt 0.6875 0.375
vt 0.6875 0
vt 0.625 0
vt 0.3125 0.375
vt 0.625 0.375
vt 0.625 0
vt 0.3125 0
vt 0.3125 0.625
vt 0.375 0.625
vt 0.375 0.3125
vt 0.3125 0.3125
vt 0.625 0.3125
vt 0.6875 0.3125
vt 0.6875 0
vt 0.625 0
vn 0 0 -1
vn 1 0 0
vn 0 0 1
vn -1 0 0
vn 0 1 0
vn 0 -1 0
g Pot
f 108/316/79 111/315/79 109/314/79 106/313/79
f 107/320/80 108/319/80 106/318/80 105/317/80
f 112/324/81 107/323/81 105/322/81 110/321/81
f 111/328/82 112/327/82 110/326/82 109/325/82
f 110/332/83 105/331/83 106/330/83 109/329/83
f 111/336/84 108/335/84 107/334/84 112/333/84
o cube
v 0.125 0.375 0.1875
v 0.125 0.375 0.125
v 0.125 0 0.1875
v 0.125 0 0.125
v -0.1875 0.375 0.125
v -0.1875 0.375 0.1875
v -0.1875 0 0.125
v -0.1875 0 0.1875
vt 0.3125 0.375
vt 0.625 0.375
vt 0.625 0
vt 0.3125 0
vt 0 1
vt 0.0625 1
vt 0.0625 0.625
vt 0 0.625
vt 0.3125 0.375
vt 0.625 0.375
vt 0.625 0
vt 0.3125 0
vt 0.625 0.375
vt 0.6875 0.375
vt 0.6875 0
vt 0.625 0
vt 0.3125 0.6875
vt 0.625 0.6875
vt 0.625 0.625
vt 0.3125 0.625
vt 0.3125 0.0625
vt 0.625 0.0625
vt 0.625 0
vt 0.3125 0
vn 0 0 -1
vn 1 0 0
vn 0 0 1
vn -1 0 0
vn 0 1 0
vn 0 -1 0
g Pot
f 116/340/85 119/339/85 117/338/85 114/337/85
f 115/344/86 116/343/86 114/342/86 113/341/86
f 120/348/87 115/347/87 113/346/87 118/345/87
f 119/352/88 120/351/88 118/350/88 117/349/88
f 118/356/89 113/355/89 114/354/89 117/353/89
f 119/360/90 116/359/90 115/358/90 120/357/90
o cube
v 0.125 0.25 0.125
v 0.125 0.25 -0.125
v 0.125 0.0625 0.125
v 0.125 0.0625 -0.125
v -0.125 0.25 -0.125
v -0.125 0.25 0.125
v -0.125 0.0625 -0.125
v -0.125 0.0625 0.125
vt 0 1
vt 0.25 1
vt 0.25 0.8125
vt 0 0.8125
vt 0 1
vt 0.25 1
vt 0.25 0.8125
vt 0 0.8125
vt 0 1
vt 0.25 1
vt 0.25 0.8125
vt 0 0.8125
vt 0 1
vt 0.25 1
vt 0.25 0.8125
vt 0 0.8125
vt 0 1
vt 0.25 1
vt 0.25 0.75
vt 0 0.75
vt 0 1
vt 0.25 1
vt 0.25 0.75
vt 0 0.75
vn 0 0 -1
vn 1 0 0
vn 0 0 1
vn -1 0 0
vn 0 1 0
vn 0 -1 0
g Dirt
f 124/364/91 127/363/91 125/362/91 122/361/91
f 123/368/92 124/367/92 122/366/92 121/365/92
f 128/372/93 123/371/93 121/370/93 126/369/93
f 127/376/94 128/375/94 126/374/94 125/373/94
f 126/380/95 121/379/95 122/378/95 125/377/95
f 127/384/96 124/383/96 123/382/96 128/381/96
o cube
v 0.125 0.0625 0.125
v 0.125 0.0625 -0.125
v 0.125 0 0.125
v 0.125 0 -0.125
v -0.125 0.0625 -0.125
v -0.125 0.0625 0.125
v -0.125 0 -0.125
v -0.125 0 0.125
vt 0 1
vt 0.25 1
vt 0.25 0.9375
vt 0 0.9375
vt 0 1
vt 0.25 1
vt 0.25 0.9375
vt 0 0.9375
vt 0 1
vt 0.25 1
vt 0.25 0.9375
vt 0 0.9375
vt 0 1
vt 0.25 1
vt 0.25 0.9375
vt 0 0.9375
vt 0 1
vt 0.25 1
vt 0.25 0.75
vt 0 0.75
vt 0.375 0.3125
vt 0.625 0.3125
vt 0.625 0.0625
vt 0.375 0.0625
vn 0 0 -1
vn 1 0 0
vn 0 0 1
vn -1 0 0
vn 0 1 0
vn 0 -1 0
g Pot
f 132/388/97 135/387/97 133/386/97 130/385/97
f 131/392/98 132/391/98 130/390/98 129/389/98
f 136/396/99 131/395/99 129/394/99 134/393/99
f 135/400/100 136/399/100 134/398/100 133/397/100
f 134/404/101 129/403/101 130/402/101 133/401/101
f 135/408/102 132/407/102 131/406/102 136/405/102
