# Made in Blockbench 4.1.3

o cube
v 0.7071067811865458 0.8298466107577221 -1.95226909072851
v 0.7071067811865458 0.8298466107577221 -1.95226909072851
v 0.7071067811865487 -0.5213338044735959 -0.4777144171082599
v 0.7071067811865487 -0.5213338044735959 -0.4777144171082599
v -0.7071067811865516 1.872514219704914 -0.9968402565119903
v -0.7071067811865516 1.872514219704914 -0.9968402565119903
v -0.7071067811865487 0.5213338044735959 0.4777144171082599
v -0.7071067811865487 0.5213338044735959 0.4777144171082599
vt 0 1
vt 0.1875 1
vt 0.1875 0.84375
vt 0 0.84375
vt 0 1
vt 0 1
vt 0 0
vt 0 0
vt 0 1
vt 1 1
vt 1 0
vt 0 0
vt 0 1
vt 0 1
vt 0 0
vt 0 0
vt 0 1
vt 1 1
vt 1 1
vt 0 1
vt 0 1
vt 1 1
vt 1 1
vt 0 1
vn -0.7071067811865462 -0.5213338044735992 -0.4777144171082601
vn 0.7071067811865488 -0.5213338044735961 -0.47771441710826
vn 0.7071067811865462 0.5213338044735992 0.4777144171082601
vn -0.7071067811865488 0.5213338044735961 0.47771441710826
vn 0 0.675590207615659 -0.7372773368101252
vn 0 -0.675590207615659 0.7372773368101252
g _
f 4/4/1 7/3/1 5/2/1 2/1/1
f 3/8/2 4/7/2 2/6/2 1/5/2
f 8/12/3 3/11/3 1/10/3 6/9/3
f 7/16/4 8/15/4 6/14/4 5/13/4
f 6/20/5 1/19/5 2/18/5 5/17/5
f 7/24/6 4/23/6 3/22/6 8/21/6
o cube
v 0.7071067811865435 1.8725142197049172 -0.9968402565119903
v 0.7071067811865435 1.8725142197049172 -0.9968402565119903
v 0.7071067811865464 0.5213338044735992 0.4777144171082599
v 0.7071067811865464 0.5213338044735992 0.4777144171082599
v -0.7071067811865492 0.8298466107577188 -1.95226909072851
v -0.7071067811865492 0.8298466107577188 -1.95226909072851
v -0.7071067811865464 -0.5213338044735992 -0.4777144171082599
v -0.7071067811865464 -0.5213338044735992 -0.4777144171082599
vt 0 1
vt 1 1
vt 1 0
vt 0 0
vt 0 1
vt 0 1
vt 0 0
vt 0 0
vt 0 1
vt 0.125 1
vt 0.125 0.90625
vt 0 0.90625
vt 0 1
vt 0 1
vt 0 0
vt 0 0
vt 0 1
vt 1 1
vt 1 1
vt 0 1
vt 0 1
vt 1 1
vt 1 1
vt 0 1
vn 0.7071067811865487 -0.5213338044735962 -0.4777144171082601
vn 0.7071067811865465 0.5213338044735992 0.4777144171082602
vn -0.7071067811865487 0.5213338044735962 0.4777144171082601
vn -0.7071067811865465 -0.5213338044735992 -0.4777144171082602
vn 0 0.6755902076156591 -0.7372773368101252
vn 0 -0.6755902076156591 0.7372773368101252
g _
f 12/28/7 15/27/7 13/26/7 10/25/7
f 11/32/8 12/31/8 10/30/8 9/29/8
f 16/36/9 11/35/9 9/34/9 14/33/9
f 15/40/10 16/39/10 14/38/10 13/37/10
f 14/44/11 9/43/11 10/42/11 13/41/11
f 15/48/12 12/47/12 11/46/12 16/45/12
