# Made in Blockbench 4.9.2

o cube
v 0.5 0.631736002669975 -0.2938351447732115
v 0.5 0.631736002669975 -0.2938351447732115
v 0.5 0.26243309529039704 -0.3589532113983103
v 0.5 0.26243309529039704 -0.3589532113983103
v -0.5 0.631736002669975 -0.2938351447732115
v -0.5 0.631736002669975 -0.2938351447732115
v -0.5 0.26243309529039704 -0.3589532113983103
v -0.5 0.26243309529039704 -0.3589532113983103
vt 0 0.8125
vt 1 0.8125
vt 1 0.40625
vt 0 0.40625
vt 0 1
vt 0 1
vt 0 0
vt 0 0
vt 0 1
vt 0 1
vt 0 0
vt 0 0
vt 0 1
vt 0 1
vt 0 0
vt 0 0
vt 0 1
vt 1 1
vt 1 1
vt 0 1
vt 0 1
vt 1 1
vt 1 1
vt 0 1
vn 0 0.17364817766693033 -0.984807753012208
vn 1 0 0
vn 0 -0.17364817766693033 0.984807753012208
vn -1 0 0
vn 0 0.984807753012208 0.17364817766693033
vn 0 -0.984807753012208 -0.17364817766693033
g _
f 4/4/1 7/3/1 5/2/1 2/1/1
f 3/8/2 4/7/2 2/6/2 1/5/2
f 8/12/3 3/11/3 1/10/3 6/9/3
f 7/16/4 8/15/4 6/14/4 5/13/4
f 6/20/5 1/19/5 2/18/5 5/17/5
f 7/24/6 4/23/6 3/22/6 8/21/6
o cube
v 0.5 0.7309051702063791 -0.2177399661471212
v 0.5 0.7309051702063791 -0.2177399661471212
v 0.5 0.6317360026699748 -0.2938351447732113
v 0.5 0.6317360026699748 -0.2938351447732113
v -0.5 0.7309051702063791 -0.2177399661471212
v -0.5 0.7309051702063791 -0.2177399661471212
v -0.5 0.6317360026699748 -0.2938351447732113
v -0.5 0.6317360026699748 -0.2938351447732113
vt 0 0.9375
vt 1 0.9375
vt 1 0.8125
vt 0 0.8125
vt 0 1
vt 0 1
vt 0 0
vt 0 0
vt 0 1
vt 0 1
vt 0 0
vt 0 0
vt 0 1
vt 0 1
vt 0 0
vt 0 0
vt 0 1
vt 1 1
vt 1 1
vt 0 1
vt 0 1
vt 1 1
vt 1 1
vt 0 1
vn 0 0.6087614290087207 -0.7933533402912352
vn 1 0 0
vn 0 -0.6087614290087207 0.7933533402912352
vn -1 0 0
vn 0 0.7933533402912352 0.6087614290087207
vn 0 -0.7933533402912352 -0.6087614290087207
g _
f 12/28/7 15/27/7 13/26/7 10/25/7
f 11/32/8 12/31/8 10/30/8 9/29/8
f 16/36/9 11/35/9 9/34/9 14/33/9
f 15/40/10 16/39/10 14/38/10 13/37/10
f 14/44/11 9/43/11 10/42/11 13/41/11
f 15/48/12 12/47/12 11/46/12 16/45/12
o cube
v 0.5 0.7597818478608727 -0.16228106528019515
v 0.5 0.7597818478608727 -0.16228106528019515
v 0.5 0.7309225595336832 -0.2177192423538341
v 0.5 0.7309225595336832 -0.2177192423538341
v -0.5 0.7597818478608727 -0.16228106528019515
v -0.5 0.7597818478608727 -0.16228106528019515
v -0.5 0.7309225595336832 -0.2177192423538341
v -0.5 0.7309225595336832 -0.2177192423538341
vt 0 1
vt 1 1
vt 1 0.9375
vt 0 0.9375
vt 0 1
vt 0 1
vt 0 0
vt 0 0
vt 0 1
vt 0 1
vt 0 0
vt 0 0
vt 0 1
vt 0 1
vt 0 0
vt 0 0
vt 0 1
vt 1 1
vt 1 1
vt 0 1
vt 0 1
vt 1 1
vt 1 1
vt 0 1
vn 0 0.8870108331782223 -0.461748613235033
vn 1 0 0
vn 0 -0.8870108331782223 0.461748613235033
vn -1 0 0
vn 0 0.461748613235033 0.8870108331782223
vn 0 -0.461748613235033 -0.8870108331782223
g _
f 20/52/13 23/51/13 21/50/13 18/49/13
f 19/56/14 20/55/14 18/54/14 17/53/14
f 24/60/15 19/59/15 17/58/15 22/57/15
f 23/64/16 24/63/16 22/62/16 21/61/16
f 22/68/17 17/67/17 18/66/17 21/65/17
f 23/72/18 20/71/18 19/70/18 24/69/18
o cube
v 0.5 0.26243309529039693 -0.3589532113983103
v 0.5 0.26243309529039693 -0.3589532113983103
v 0.5 0.012433095290396934 -0.3589532113983103
v 0.5 0.012433095290396934 -0.3589532113983103
v -0.5 0.26243309529039693 -0.3589532113983103
v -0.5 0.26243309529039693 -0.3589532113983103
v -0.5 0.012433095290396934 -0.3589532113983103
v -0.5 0.012433095290396934 -0.3589532113983103
vt 0 0.40625
vt 1 0.40625
vt 1 0.125
vt 0 0.125
vt 0 1
vt 0 1
vt 0 0
vt 0 0
vt 0 1
vt 0 1
vt 0 0
vt 0 0
vt 0 1
vt 0 1
vt 0 0
vt 0 0
vt 0 1
vt 1 1
vt 1 1
vt 0 1
vt 0 1
vt 1 1
vt 1 1
vt 0 1
vn 0 0 -1
vn 1 0 0
vn 0 0 1
vn -1 0 0
vn 0 1 0
vn 0 -1 0
g _
f 28/76/19 31/75/19 29/74/19 26/73/19
f 27/80/20 28/79/20 26/78/20 25/77/20
f 32/84/21 27/83/21 25/82/21 30/81/21
f 31/88/22 32/87/22 30/86/22 29/85/22
f 30/92/23 25/91/23 26/90/23 29/89/23
f 31/96/24 28/95/24 27/94/24 32/93/24
o cube
v 0.5 0.012433095290396934 -0.3589532113983103
v 0.5 0.012433095290396934 -0.3589532113983103
v 0.5 -0.10960390559959476 -0.3860081631405732
v 0.5 -0.10960390559959476 -0.3860081631405732
v -0.5 0.012433095290396934 -0.3589532113983103
v -0.5 0.012433095290396934 -0.3589532113983103
v -0.5 -0.10960390559959476 -0.3860081631405732
v -0.5 -0.10960390559959476 -0.3860081631405732
vt 0 0.125
vt 1 0.125
vt 1 0
vt 0 0
vt 0 1
vt 0 1
vt 0 0
vt 0 0
vt 0 1
vt 0 1
vt 0 0
vt 0 0
vt 0 1
vt 0 1
vt 0 0
vt 0 0
vt 0 1
vt 1 1
vt 1 1
vt 0 1
vt 0 1
vt 1 1
vt 1 1
vt 0 1
vn 0 0.21643961393810288 -0.9762960071199334
vn 1 0 0
vn 0 -0.21643961393810288 0.9762960071199334
vn -1 0 0
vn 0 0.9762960071199334 0.21643961393810288
vn 0 -0.9762960071199334 -0.21643961393810288
g _
f 36/100/25 39/99/25 37/98/25 34/97/25
f 35/104/26 36/103/26 34/102/26 33/101/26
f 40/108/27 35/107/27 33/106/27 38/105/27
f 39/112/28 40/111/28 38/110/28 37/109/28
f 38/116/29 33/115/29 34/114/29 37/113/29
f 39/120/30 36/119/30 35/118/30 40/117/30
o cube
v 0.545452617122063 1.0097818478608729 -0.039835269884264224
v 0.545452617122063 1.0097818478608729 -0.039835269884264224
v 0.5621231984820512 0.9809225595336832 -0.09270759907797532
v 0.5621231984820512 0.9809225595336832 -0.09270759907797532
v -0.4082643336261639 1.0097818478608729 -0.34054106938853723
v -0.4082643336261639 1.0097818478608729 -0.34054106938853723
v -0.39159375226617577 0.9809225595336832 -0.39341339858224833
v -0.39159375226617577 0.9809225595336832 -0.39341339858224833
vt 0 1
vt 1 1
vt 1 0.9375
vt 0 0.9375
vt 0 1
vt 0 1
vt 0 0
vt 0 0
vt 0 1
vt 0 1
vt 0 0
vt 0 0
vt 0 1
vt 0 1
vt 0 0
vt 0 0
vt 0 1
vt 1 1
vt 1 1
vt 0 1
vt 0 1
vt 1 1
vt 1 1
vt 0 1
vn 0.13885048591282997 0.8870108331782223 -0.44037747942673805
vn 0.9537169507482269 0 0.30070579950427306
vn -0.13885048591282997 -0.8870108331782223 0.44037747942673805
vn -0.9537169507482269 0 -0.30070579950427306
vn -0.2667293017598087 0.46174861323503297 0.8459572670993784
vn 0.2667293017598087 -0.46174861323503297 -0.8459572670993784
g _
f 44/124/31 47/123/31 45/122/31 42/121/31
f 43/128/32 44/127/32 42/126/32 41/125/32
f 48/132/33 43/131/33 41/130/33 46/129/33
f 47/136/34 48/135/34 46/134/34 45/133/34
f 46/140/35 41/139/35 42/138/35 45/137/35
f 47/144/36 44/143/36 43/142/36 48/141/36
o cube
v 0.5621294302468804 0.9809051702063794 -0.09272736371091705
v 0.5621294302468804 0.9809051702063794 -0.09272736371091705
v 0.5850116917740593 0.8817360026699748 -0.16530062543683322
v 0.5850116917740593 0.8817360026699748 -0.16530062543683322
v -0.3915875205013466 0.9809051702063794 -0.39343316321519006
v -0.3915875205013466 0.9809051702063794 -0.39343316321519006
v -0.3687052589741676 0.8817360026699748 -0.46600642494110633
v -0.3687052589741676 0.8817360026699748 -0.46600642494110633
vt 0 0.9375
vt 1 0.9375
vt 1 0.8125
vt 0 0.8125
vt 0 1
vt 0 1
vt 0 0
vt 0 0
vt 0 1
vt 0 1
vt 0 0
vt 0 0
vt 0 1
vt 0 1
vt 0 0
vt 0 0
vt 0 1
vt 1 1
vt 1 1
vt 0 1
vt 0 1
vt 1 1
vt 1 1
vt 0 1
vn 0.2385659504816615 0.6087614290087207 -0.7566345285684772
vn 0.953716950748227 0 0.30070579950427306
vn -0.2385659504816615 -0.6087614290087207 0.7566345285684772
vn -0.953716950748227 0 -0.30070579950427306
vn -0.18305809221743116 0.7933533402912352 0.5805860938073304
vn 0.18305809221743116 -0.7933533402912352 -0.5805860938073304
g _
f 52/148/37 55/147/37 53/146/37 50/145/37
f 51/152/38 52/151/38 50/150/38 49/149/38
f 56/156/39 51/155/39 49/154/39 54/153/39
f 55/160/40 56/159/40 54/158/40 53/157/40
f 54/164/41 49/163/41 50/162/41 53/161/41
f 55/168/42 52/167/42 51/166/42 56/165/42
o cube
v 0.5850116917740591 0.881736002669975 -0.1653006254368335
v 0.5850116917740591 0.881736002669975 -0.1653006254368335
v 0.604593072060732 0.512433095290397 -0.22740482937714263
v 0.604593072060732 0.512433095290397 -0.22740482937714263
v -0.3687052589741676 0.881736002669975 -0.46600642494110656
v -0.3687052589741676 0.881736002669975 -0.46600642494110656
v -0.3491238786874947 0.512433095290397 -0.5281106288814157
v -0.3491238786874947 0.512433095290397 -0.5281106288814157
vt 0 0.8125
vt 1 0.8125
vt 1 0.40625
vt 0 0.40625
vt 0 1
vt 0 1
vt 0 0
vt 0 0
vt 0 1
vt 0 1
vt 0 0
vt 0 0
vt 0 1
vt 0 1
vt 0 0
vt 0 0
vt 0 1
vt 1 1
vt 1 1
vt 0 1
vt 0 1
vt 1 1
vt 1 1
vt 0 1
vn 0.2961374027275427 0.1736481776669303 -0.939227847276016
vn 0.953716950748227 0 0.3007057995042731
vn -0.2961374027275427 -0.1736481776669303 0.939227847276016
vn -0.953716950748227 0 -0.3007057995042731
vn -0.05221701409779434 0.984807753012208 0.16561121050749114
vn 0.05221701409779434 -0.984807753012208 -0.16561121050749114
g _
f 60/172/43 63/171/43 61/170/43 58/169/43
f 59/176/44 60/175/44 58/174/44 57/173/44
f 64/180/45 59/179/45 57/178/45 62/177/45
f 63/184/46 64/183/46 62/182/46 61/181/46
f 62/188/47 57/187/47 58/186/47 61/185/47
f 63/192/48 60/191/48 59/190/48 64/189/48
o cube
v 0.6045930720607322 0.512433095290397 -0.22740482937714263
v 0.6045930720607322 0.512433095290397 -0.22740482937714263
v 0.6045930720607322 0.26243309529039693 -0.22740482937714263
v 0.6045930720607322 0.26243309529039693 -0.22740482937714263
v -0.3491238786874948 0.512433095290397 -0.5281106288814157
v -0.3491238786874948 0.512433095290397 -0.5281106288814157
v -0.3491238786874948 0.26243309529039693 -0.5281106288814157
v -0.3491238786874948 0.26243309529039693 -0.5281106288814157
vt 0 0.40625
vt 1 0.40625
vt 1 0.125
vt 0 0.125
vt 0 1
vt 0 1
vt 0 0
vt 0 0
vt 0 1
vt 0 1
vt 0 0
vt 0 0
vt 0 1
vt 0 1
vt 0 0
vt 0 0
vt 0 1
vt 1 1
vt 1 1
vt 0 1
vt 0 1
vt 1 1
vt 1 1
vt 0 1
vn 0.30070579950427306 0 -0.9537169507482269
vn 0.9537169507482269 0 0.30070579950427306
vn -0.30070579950427306 0 0.9537169507482269
vn -0.9537169507482269 0 -0.30070579950427306
vn 0 1 0
vn 0 -1 0
g _
f 68/196/49 71/195/49 69/194/49 66/193/49
f 67/200/50 68/199/50 66/198/50 65/197/50
f 72/204/51 67/203/51 65/202/51 70/201/51
f 71/208/52 72/207/52 70/206/52 69/205/52
f 70/212/53 65/211/53 66/210/53 69/209/53
f 71/216/54 68/215/54 67/214/54 72/213/54
o cube
v 0.6045930720607322 0.26243309529039693 -0.22740482937714263
v 0.6045930720607322 0.26243309529039693 -0.22740482937714263
v 0.6127286529549387 0.14039609440040524 -0.253207595455414
v 0.6127286529549387 0.14039609440040524 -0.253207595455414
v -0.3491238786874947 0.26243309529039693 -0.5281106288814157
v -0.3491238786874947 0.26243309529039693 -0.5281106288814157
v -0.3409882977932881 0.14039609440040524 -0.553913394959687
v -0.3409882977932881 0.14039609440040524 -0.553913394959687
vt 0 0.125
vt 1 0.125
vt 1 0
vt 0 0
vt 0 1
vt 0 1
vt 0 0
vt 0 0
vt 0 1
vt 0 1
vt 0 0
vt 0 0
vt 0 1
vt 0 1
vt 0 0
vt 0 0
vt 0 1
vt 1 1
vt 1 1
vt 0 1
vt 0 1
vt 1 1
vt 1 1
vt 0 1
vn 0.293577871373829 0.21643961393810288 -0.9311100509380921
vn 0.953716950748227 0 0.3007057995042731
vn -0.293577871373829 -0.21643961393810288 0.9311100509380921
vn -0.953716950748227 0 -0.3007057995042731
vn -0.06508464715365345 0.9762960071199335 0.20642212862617096
vn 0.06508464715365345 -0.9762960071199335 -0.20642212862617096
g _
f 76/220/55 79/219/55 77/218/55 74/217/55
f 75/224/56 76/223/56 74/222/56 73/221/56
f 80/228/57 75/227/57 73/226/57 78/225/57
f 79/232/58 80/231/58 78/230/58 77/229/58
f 78/236/59 73/235/59 74/234/59 77/233/59
f 79/240/60 76/239/60 75/238/60 80/237/60
o cube
v 0.3926393336261639 0.9472818478608729 -0.32491606938853723
v 0.3926393336261639 0.9472818478608729 -0.32491606938853723
v 0.37596875226617577 0.9184225595336832 -0.37778839858224833
v 0.37596875226617577 0.9184225595336832 -0.37778839858224833
v -0.561077617122063 0.9472818478608729 -0.024210269884264224
v -0.561077617122063 0.9472818478608729 -0.024210269884264224
v -0.5777481984820512 0.9184225595336832 -0.07708259907797532
v -0.5777481984820512 0.9184225595336832 -0.07708259907797532
vt 0 1
vt 1 1
vt 1 0.9375
vt 0 0.9375
vt 0 1
vt 0 1
vt 0 0
vt 0 0
vt 0 1
vt 0 1
vt 0 0
vt 0 0
vt 0 1
vt 0 1
vt 0 0
vt 0 0
vt 0 1
vt 1 1
vt 1 1
vt 0 1
vt 0 1
vt 1 1
vt 1 1
vt 0 1
vn -0.13885048591282997 0.8870108331782223 -0.44037747942673805
vn 0.9537169507482269 0 -0.30070579950427306
vn 0.13885048591282997 -0.8870108331782223 0.44037747942673805
vn -0.9537169507482269 0 0.30070579950427306
vn 0.2667293017598087 0.46174861323503297 0.8459572670993784
vn -0.2667293017598087 -0.46174861323503297 -0.8459572670993784
g _
f 84/244/61 87/243/61 85/242/61 82/241/61
f 83/248/62 84/247/62 82/246/62 81/245/62
f 88/252/63 83/251/63 81/250/63 86/249/63
f 87/256/64 88/255/64 86/254/64 85/253/64
f 86/260/65 81/259/65 82/258/65 85/257/65
f 87/264/66 84/263/66 83/262/66 88/261/66
o cube
v 0.3759625205013466 0.9184051702063794 -0.37780816321519006
v 0.3759625205013466 0.9184051702063794 -0.37780816321519006
v 0.3530802589741676 0.8192360026699748 -0.45038142494110633
v 0.3530802589741676 0.8192360026699748 -0.45038142494110633
v -0.5777544302468803 0.9184051702063794 -0.07710236371091705
v -0.5777544302468803 0.9184051702063794 -0.07710236371091705
v -0.6006366917740593 0.8192360026699748 -0.14967562543683322
v -0.6006366917740593 0.8192360026699748 -0.14967562543683322
vt 0 0.9375
vt 1 0.9375
vt 1 0.8125
vt 0 0.8125
vt 0 1
vt 0 1
vt 0 0
vt 0 0
vt 0 1
vt 0 1
vt 0 0
vt 0 0
vt 0 1
vt 0 1
vt 0 0
vt 0 0
vt 0 1
vt 1 1
vt 1 1
vt 0 1
vt 0 1
vt 1 1
vt 1 1
vt 0 1
vn -0.2385659504816615 0.6087614290087207 -0.7566345285684772
vn 0.953716950748227 0 -0.30070579950427306
vn 0.2385659504816615 -0.6087614290087207 0.7566345285684772
vn -0.953716950748227 0 0.30070579950427306
vn 0.18305809221743116 0.7933533402912352 0.5805860938073304
vn -0.18305809221743116 -0.7933533402912352 -0.5805860938073304
g _
f 92/268/67 95/267/67 93/266/67 90/265/67
f 91/272/68 92/271/68 90/270/68 89/269/68
f 96/276/69 91/275/69 89/274/69 94/273/69
f 95/280/70 96/279/70 94/278/70 93/277/70
f 94/284/71 89/283/71 90/282/71 93/281/71
f 95/288/72 92/287/72 91/286/72 96/285/72
o cube
v 0.3530802589741676 0.819236002669975 -0.45038142494110656
v 0.3530802589741676 0.819236002669975 -0.45038142494110656
v 0.3334988786874947 0.44993309529039704 -0.5124856288814157
v 0.3334988786874947 0.44993309529039704 -0.5124856288814157
v -0.6006366917740592 0.819236002669975 -0.1496756254368335
v -0.6006366917740592 0.819236002669975 -0.1496756254368335
v -0.6202180720607321 0.44993309529039704 -0.21177982937714263
v -0.6202180720607321 0.44993309529039704 -0.21177982937714263
vt 0 0.8125
vt 1 0.8125
vt 1 0.40625
vt 0 0.40625
vt 0 1
vt 0 1
vt 0 0
vt 0 0
vt 0 1
vt 0 1
vt 0 0
vt 0 0
vt 0 1
vt 0 1
vt 0 0
vt 0 0
vt 0 1
vt 1 1
vt 1 1
vt 0 1
vt 0 1
vt 1 1
vt 1 1
vt 0 1
vn -0.2961374027275427 0.1736481776669303 -0.939227847276016
vn 0.953716950748227 0 -0.3007057995042731
vn 0.2961374027275427 -0.1736481776669303 0.939227847276016
vn -0.953716950748227 0 0.3007057995042731
vn 0.05221701409779434 0.984807753012208 0.16561121050749114
vn -0.05221701409779434 -0.984807753012208 -0.16561121050749114
g _
f 100/292/73 103/291/73 101/290/73 98/289/73
f 99/296/74 100/295/74 98/294/74 97/293/74
f 104/300/75 99/299/75 97/298/75 102/297/75
f 103/304/76 104/303/76 102/302/76 101/301/76
f 102/308/77 97/307/77 98/306/77 101/305/77
f 103/312/78 100/311/78 99/310/78 104/309/78
o cube
v 0.33349887868749484 0.44993309529039693 -0.5124856288814157
v 0.33349887868749484 0.44993309529039693 -0.5124856288814157
v 0.33349887868749484 0.19993309529039693 -0.5124856288814157
v 0.33349887868749484 0.19993309529039693 -0.5124856288814157
v -0.6202180720607322 0.44993309529039693 -0.21177982937714263
v -0.6202180720607322 0.44993309529039693 -0.21177982937714263
v -0.6202180720607322 0.19993309529039693 -0.21177982937714263
v -0.6202180720607322 0.19993309529039693 -0.21177982937714263
vt 0 0.40625
vt 1 0.40625
vt 1 0.125
vt 0 0.125
vt 0 1
vt 0 1
vt 0 0
vt 0 0
vt 0 1
vt 0 1
vt 0 0
vt 0 0
vt 0 1
vt 0 1
vt 0 0
vt 0 0
vt 0 1
vt 1 1
vt 1 1
vt 0 1
vt 0 1
vt 1 1
vt 1 1
vt 0 1
vn -0.30070579950427306 0 -0.9537169507482269
vn 0.9537169507482269 0 -0.30070579950427306
vn 0.30070579950427306 0 0.9537169507482269
vn -0.9537169507482269 0 0.30070579950427306
vn 0 1 0
vn 0 -1 0
g _
f 108/316/79 111/315/79 109/314/79 106/313/79
f 107/320/80 108/319/80 106/318/80 105/317/80
f 112/324/81 107/323/81 105/322/81 110/321/81
f 111/328/82 112/327/82 110/326/82 109/325/82
f 110/332/83 105/331/83 106/330/83 109/329/83
f 111/336/84 108/335/84 107/334/84 112/333/84
o cube
v 0.3334988786874947 0.19993309529039693 -0.5124856288814157
v 0.3334988786874947 0.19993309529039693 -0.5124856288814157
v 0.3253632977932881 0.07789609440040524 -0.538288394959687
v 0.3253632977932881 0.07789609440040524 -0.538288394959687
v -0.6202180720607322 0.19993309529039693 -0.21177982937714263
v -0.6202180720607322 0.19993309529039693 -0.21177982937714263
v -0.6283536529549388 0.07789609440040524 -0.237582595455414
v -0.6283536529549388 0.07789609440040524 -0.237582595455414
vt 0 0.125
vt 1 0.125
vt 1 0
vt 0 0
vt 0 1
vt 0 1
vt 0 0
vt 0 0
vt 0 1
vt 0 1
vt 0 0
vt 0 0
vt 0 1
vt 0 1
vt 0 0
vt 0 0
vt 0 1
vt 1 1
vt 1 1
vt 0 1
vt 0 1
vt 1 1
vt 1 1
vt 0 1
vn -0.293577871373829 0.21643961393810288 -0.9311100509380921
vn 0.953716950748227 0 -0.3007057995042731
vn 0.293577871373829 -0.21643961393810288 0.9311100509380921
vn -0.953716950748227 0 0.3007057995042731
vn 0.06508464715365345 0.9762960071199335 0.20642212862617096
vn -0.06508464715365345 -0.9762960071199335 -0.20642212862617096
g _
f 116/340/85 119/339/85 117/338/85 114/337/85
f 115/344/86 116/343/86 114/342/86 113/341/86
f 120/348/87 115/347/87 113/346/87 118/345/87
f 119/352/88 120/351/88 118/350/88 117/349/88
f 118/356/89 113/355/89 114/354/89 117/353/89
f 119/360/90 116/359/90 115/358/90 120/357/90
